<?xml version="1.0" encoding="utf-8"?>
<!-- Generator: Adobe Illustrator 24.0.0, SVG Export Plug-In . SVG Version: 6.00 Build 0)  -->
<svg version="1.1" id="Layer_1" xmlns="http://www.w3.org/2000/svg" xmlns:xlink="http://www.w3.org/1999/xlink" x="0px" y="0px"
	 viewBox="0 0 265 170" style="enable-background:new 0 0 265 170;" xml:space="preserve">
<style type="text/css">
	.st0{fill:#070606;}
</style>
<g id="id0" transform="matrix(1.0,0,0,1.0,0.0,0.0)">
	<g id="g3051" transform="translate(0.31921555,-0.00906732)">
		<g id="layer1">
			<path id="path2997" class="st0" d="M86.1,77.1c0.1,10.8,9.8,14.4,9.9,14.5c-0.1,0.3-1.6,5.1-5.1,10.2c-3.1,4.4-6.3,8.7-11.3,8.8
				c-4.9,0.1-6.5-2.8-12.2-2.8c-5.7,0-7.4,2.8-12.1,2.9c-4.9,0.2-8.6-4.7-11.7-9.1c-6.3-8.9-11.2-25.1-4.7-36c3.2-5.4,9-8.9,15.3-9
				c4.8-0.1,9.3,3.1,12.2,3.1s8.4-3.8,14.1-3.3c2.4,0.1,9.2,0.9,13.5,7.1C93.7,63.7,86,68,86.1,77.1 M76.8,50.5
				c2.6-3,4.3-7.2,3.8-11.4c-3.7,0.1-8.2,2.4-10.9,5.4c-2.4,2.7-4.5,7-3.9,11.1C70,55.9,74.2,53.5,76.8,50.5"/>
		</g>
		<g id="text3006" transform="scale(1.0117962,0.98834128)">
			<path id="path2995" class="st0" d="M112.8,45.9c1.9-0.3,4-0.6,6.3-0.9c2.3-0.3,4.8-0.4,7.5-0.4c3.9,0,7.3,0.5,10.1,1.4
				s5.2,2.3,7,4.1c1.6,1.6,2.8,3.4,3.7,5.6c0.9,2.1,1.3,4.6,1.3,7.4c0,3.4-0.6,6.3-1.8,8.9c-1.2,2.5-2.8,4.7-4.9,6.4
				c-2.1,1.7-4.6,3-7.4,3.9c-2.9,0.8-6,1.3-9.4,1.3c-3.1,0-5.6-0.2-7.7-0.7V111h-4.6V45.9H112.8z M117.4,78.7
				c1.1,0.3,2.3,0.6,3.7,0.7c1.4,0.1,2.8,0.2,4.4,0.2c5.9,0,10.4-1.4,13.6-4.1c3.2-2.7,4.8-6.7,4.8-12c0-2.5-0.4-4.8-1.3-6.6
				c-0.8-1.9-2.1-3.4-3.6-4.6c-1.6-1.2-3.4-2.1-5.6-2.7c-2.1-0.6-4.5-0.9-7.1-0.9c-2.1,0-3.9,0.1-5.4,0.2c-1.5,0.2-2.7,0.3-3.6,0.5
				L117.4,78.7z"/>
			<path id="path2998" class="st0" d="M185.1,99.8c0,1.9,0,3.8,0.1,5.7s0.3,3.7,0.6,5.5h-4.3l-0.7-6.6h-0.2
				c-0.6,0.9-1.3,1.8-2.2,2.7c-0.9,0.9-2,1.7-3.2,2.5c-1.2,0.7-2.6,1.4-4.1,1.8c-1.5,0.5-3.2,0.7-5,0.7c-2.3,0-4.3-0.4-6-1.1
				s-3.1-1.7-4.2-2.9c-1.1-1.2-1.9-2.6-2.5-4.2c-0.6-1.6-0.8-3.1-0.8-4.7c0-5.5,2.3-9.8,7-12.8s11.7-4.4,21-4.3v-1.3
				c0-1.2-0.1-2.7-0.3-4.3c-0.2-1.6-0.7-3.1-1.5-4.5s-2-2.6-3.5-3.6c-1.6-1-3.7-1.5-6.3-1.5c-2,0-4,0.3-6,0.9s-3.8,1.5-5.4,2.6
				l-1.5-3.4c2.1-1.4,4.2-2.5,6.4-3.1s4.5-0.9,6.9-0.9c3.3,0,5.9,0.6,8,1.7s3.7,2.5,4.8,4.3c1.2,1.8,2,3.7,2.4,5.9
				c0.4,2.2,0.6,4.3,0.6,6.5L185.1,99.8z M180.6,85.8c-2.5-0.1-5.1,0-7.8,0.3s-5.2,0.8-7.5,1.7c-2.3,0.9-4.2,2.2-5.7,3.9
				c-1.5,1.7-2.2,3.9-2.2,6.7c0,3.3,0.9,5.8,2.8,7.3c1.9,1.6,4,2.3,6.3,2.3c1.9,0,3.6-0.3,5.1-0.8s2.8-1.2,3.9-2.1
				c1.1-0.9,2-1.9,2.8-3c0.7-1.1,1.3-2.2,1.7-3.4c0.3-1.3,0.5-2.2,0.5-2.8L180.6,85.8z"/>
			<path id="path3000" class="st0" d="M194.1,64L206,94.5c0.7,1.7,1.3,3.4,1.9,5.2c0.6,1.8,1.1,3.4,1.6,4.9h0.2c0.5-1.4,1-3,1.6-4.8
				s1.2-3.6,2-5.5L224.4,64h4.9l-13.7,34.4c-1.4,3.6-2.7,7-3.9,9.9c-1.2,3-2.4,5.6-3.7,8c-1.2,2.4-2.5,4.5-3.8,6.3s-2.7,3.4-4.3,4.8
				c-1.8,1.6-3.5,2.8-5,3.6c-1.5,0.7-2.6,1.2-3.1,1.4l-1.6-3.8c1.2-0.5,2.5-1.2,3.9-2.1c1.4-0.8,2.8-2,4.2-3.3
				c1.2-1.2,2.5-2.7,3.9-4.6s2.7-4.2,3.8-7c0.4-1,0.6-1.7,0.6-2.1c0-0.5-0.2-1.1-0.6-2.1l-16.9-43.5L194.1,64L194.1,64z"/>
		</g>
	</g>
</g>
</svg>
