<?xml version="1.0" encoding="utf-8"?>
<!-- Generator: Adobe Illustrator 24.0.0, SVG Export Plug-In . SVG Version: 6.00 Build 0)  -->
<svg version="1.1" id="Layer_1" xmlns="http://www.w3.org/2000/svg" xmlns:xlink="http://www.w3.org/1999/xlink" x="0px" y="0px"
	 viewBox="0 0 265 170" style="enable-background:new 0 0 265 170;" xml:space="preserve">
<style type="text/css">
	.st0{clip-path:url(#SVGID_1_);fill:#FFFFFF;}
	.st1{clip-path:url(#SVGID_2_);fill:#FFFFFF;}
	.st2{clip-path:url(#SVGID_3_);fill:#F20005;}
	.st3{clip-path:url(#SVGID_4_);fill:#F20005;}
	.st4{clip-path:url(#SVGID_5_);fill:#F20005;}
	.st5{clip-path:url(#SVGID_6_);fill:#F20005;}
</style>
<g id="id5" transform="matrix(1.0,0,0,1.0,1330.0,0.0)">
	<g id="tpyqJ8.tif_1_">
	</g>
	<g id="RHc8AJ.tif_1_">
	</g>
	<g id="MRG7VI.tif_1_">
	</g>
	<g id="ddSF7z.tif_1_">
	</g>
	<g>
		<g>
			<g>
				<g>
					<defs>
						<rect id="SVGID_13_" x="-1295.8" y="19.2" width="197.6" height="130.6"/>
					</defs>
					<clipPath id="SVGID_1_">
						<use xlink:href="#SVGID_13_"  style="overflow:visible;"/>
					</clipPath>
					<path class="st0" d="M-1236.3,26.2c-32.2,0-58.3,26.2-58.3,58.3c0,32.2,26.2,58.3,58.3,58.3h78.6c32.2,0,58.3-26.2,58.3-58.3
						c0-32.2-26.2-58.3-58.3-58.3H-1236.3z"/>
				</g>
				<g>
					<defs>
						<rect id="SVGID_15_" x="-1295.8" y="19.2" width="197.6" height="130.6"/>
					</defs>
					<clipPath id="SVGID_2_">
						<use xlink:href="#SVGID_15_"  style="overflow:visible;"/>
					</clipPath>
					<path class="st1" d="M-1157.7,144h-78.6c-32.8,0-59.5-26.7-59.5-59.5s26.7-59.5,59.5-59.5h78.6c32.8,0,59.5,26.7,59.5,59.5
						S-1124.9,144-1157.7,144 M-1236.3,26.2c-32.2,0-58.3,26.2-58.3,58.3c0,32.2,26.2,58.3,58.3,58.3h78.6
						c32.2,0,58.3-26.2,58.3-58.3c0-32.2-26.2-58.3-58.3-58.3H-1236.3z"/>
				</g>
				<g>
					<defs>
						<rect id="SVGID_17_" x="-1295.8" y="19.2" width="197.6" height="130.6"/>
					</defs>
					<clipPath id="SVGID_3_">
						<use xlink:href="#SVGID_17_"  style="overflow:visible;"/>
					</clipPath>
					<path class="st2" d="M-1144,80.9l26.1,31.1c5.4-7.8,8.6-17.3,8.6-27.5c0-10.8-3.5-20.7-9.5-28.8L-1144,80.9z"/>
				</g>
				<g>
					<defs>
						<rect id="SVGID_19_" x="-1295.8" y="19.2" width="197.6" height="130.6"/>
					</defs>
					<clipPath id="SVGID_4_">
						<use xlink:href="#SVGID_19_"  style="overflow:visible;"/>
					</clipPath>
					<path class="st3" d="M-1218,53.1c19.5,0,34.2,5,35.7,21.4l20.5-21.4h40.9c-8.9-10.4-22.1-17-36.8-17h-78.6
						c-14.7,0-28,6.6-36.8,17H-1218z"/>
				</g>
				<g>
					<defs>
						<rect id="SVGID_21_" x="-1295.8" y="19.2" width="197.6" height="130.6"/>
					</defs>
					<clipPath id="SVGID_5_">
						<use xlink:href="#SVGID_21_"  style="overflow:visible;"/>
					</clipPath>
					<path class="st4" d="M-1250.1,73.8l-7,19.2h28.1c8.3,0,10.8-3.4,12.7-10.1c1.8-6.5-2.8-9.1-8.5-9.1H-1250.1z"/>
				</g>
				<g>
					<defs>
						<rect id="SVGID_23_" x="-1295.8" y="19.2" width="197.6" height="130.6"/>
					</defs>
					<clipPath id="SVGID_6_">
						<use xlink:href="#SVGID_23_"  style="overflow:visible;"/>
					</clipPath>
					<path class="st5" d="M-1161.6,114.6l-21.7-27.4c-4,18.7-17.2,27.4-41.8,27.4h-49.1c8.9,11.2,22.6,18.3,37.9,18.3h78.6
						c15.3,0,29-7.2,37.9-18.3C-1119.8,114.6-1161.6,114.6-1161.6,114.6z"/>
				</g>
			</g>
		</g>
	</g>
</g>
</svg>
