<?xml version="1.0" encoding="utf-8"?>
<!-- Generator: Adobe Illustrator 24.0.0, SVG Export Plug-In . SVG Version: 6.00 Build 0)  -->
<svg version="1.1" id="Layer_1" xmlns="http://www.w3.org/2000/svg" xmlns:xlink="http://www.w3.org/1999/xlink" x="0px" y="0px"
	 viewBox="0 0 265 170" style="enable-background:new 0 0 265 170;" xml:space="preserve">
<style type="text/css">
	.st0{fill:#40C0EF;}
</style>
<g id="id8" transform="matrix(1.0,0,0,1.0,2128.0,0.0)">
	<g id="ZbAYvC.tif">
		<g>
			<path class="st0" d="M-1995.7,132.1c-13.4,0-26.4-2.2-38.8-7.3c-6.7-2.8-12.6-6.7-18.4-11c-6.9-5-13.1-10.7-18.2-17.7
				c-1.1-1.5-2.2-3.1-3.1-4.8c-0.7-1.3,0-2.7,1.4-2.7c3,0,6-0.2,8.9,0.1c2,0.3,3.6,1.3,4.7,3.1c9,14.5,22,23.4,38.4,27.4
				c18.2,4.4,35.9,2.7,52.8-5.5c7.4-3.6,13.5-8.9,19-15c2.1-2.3,4-4.6,6-7.1c1.6-2,3.7-3.1,6.3-3.1c5.9,0,11.7,0,17.6,0
				c1.9,0,2.7,1.4,1.6,3c-4,6.4-9,11.9-14.7,16.8c-6.4,5.5-13,10.5-20.7,14.2c-9.7,4.7-19.9,7.6-30.7,8.8
				C-1987.6,131.9-1991.6,132.1-1995.7,132.1z"/>
			<path class="st0" d="M-1922.8,81.6c-1.2,0-2.5,0-3.7,0c-2.5-0.1-4.4-1.2-5.7-3.2c-8.6-13.8-21-22.7-36.7-26.9
				c-9.4-2.5-18.9-3.3-28.6-2.3c-11.7,1.2-22.7,4.7-32.5,11.2c-5.4,3.6-9.9,8.3-14.2,13.2c-1.5,1.7-2.8,3.4-4.2,5.1
				c-1.5,1.9-3.5,2.9-6,2.9c-6,0-11.9,0-17.9,0c-1.8,0-2.6-1.4-1.6-3c3.3-5.3,7.4-10,12-14.3c8.8-8.2,18.5-15.1,29.8-19.5
				c8-3.1,16.3-5.2,24.9-6.1c7.2-0.7,14.4-0.8,21.6-0.2c11.9,1.1,23.5,3.7,34.1,9.4c10.5,5.7,20,12.8,27.9,21.7
				c2.4,2.7,4.6,5.7,6.4,8.8c1,1.8,0.3,3-1.7,3c-0.6,0-1.2,0-1.9,0C-1921.6,81.6-1922.2,81.6-1922.8,81.6L-1922.8,81.6z"/>
			<path class="st0" d="M-2007.8,96.8c3.7,4,8.1,5.8,13.4,5.4c5-0.4,8.9-2.7,11.9-6.8c1.3-1.8,3.1-2.7,5.4-2.7c2.4,0,4.7,0,7.1,0
				c1.8,0,2.4,0.8,1.8,2.5c-3.7,10.1-10.8,16.6-21.3,18.8c-14.8,3.2-29.5-6-33.4-20.7c-4.4-16.7,6.8-33.4,23.9-35.7
				c12.9-1.7,25.5,5.6,30.2,17.7c0.8,2.1,0.2,3.7-1.9,4.6c-12.1,5.4-24.1,10.8-36.2,16.2C-2007.2,96.5-2007.3,96.6-2007.8,96.8z
				 M-1983.3,76.1c-0.3-0.3-0.5-0.6-0.7-0.9c-3.9-3.9-8.7-5.5-14.2-4.7c-8.1,1.2-14.2,9.1-13.3,17.2c0.1,0.7,0.2,1.1,1.1,0.7
				c6.4-2.9,12.9-5.8,19.3-8.7C-1988.7,78.5-1986.1,77.3-1983.3,76.1z"/>
		</g>
	</g>
</g>
</svg>
