<?xml version="1.0" encoding="utf-8"?>
<!-- Generator: Adobe Illustrator 24.0.0, SVG Export Plug-In . SVG Version: 6.00 Build 0)  -->
<svg version="1.1" id="Layer_1" xmlns="http://www.w3.org/2000/svg" xmlns:xlink="http://www.w3.org/1999/xlink" x="0px" y="0px"
	 viewBox="0 0 265 170" style="enable-background:new 0 0 265 170;" xml:space="preserve">
<style type="text/css">
	.st0{fill:#5F6368;}
	.st1{fill:#4285F4;}
	.st2{fill:#34A853;}
	.st3{fill:#FABB05;}
	.st4{fill:#E94235;}
</style>
<g id="id1" transform="matrix(1.0,0,0,1.0,266.0,0.0)">
	<g id="GPay-Light-themed-buttons">
		<g id="GPAY---SVGs" transform="translate(-185.000000, -400.000000)">
			<g id="GPay-Brand-Mark" transform="translate(185.000000, 400.000000)">
				<g id="GPay" transform="translate(0.261474, 0.261474)">
					<g id="Pay" transform="translate(17.615069, 0.825706)">
						<path id="Fill-1" class="st0" d="M-157,55.4v20.4h12.6c3,0,5.5-1,7.4-3c2-2,3-4.4,3-7.2c0-2.7-1-5.1-3-7.1
							c-2-2.1-4.4-3.1-7.4-3.1L-157,55.4L-157,55.4z M-157,83v23.7h-7.5V48.2h20c5.1,0,9.4,1.7,12.9,5.1c3.6,3.4,5.4,7.5,5.4,12.3
							c0,5-1.8,9.1-5.4,12.4c-3.5,3.3-7.8,5-12.9,5H-157L-157,83z"/>
						<path id="Fill-3" class="st0" d="M-118.6,94.4c0,2,0.8,3.6,2.5,4.9s3.6,2,5.8,2c3.2,0,6-1.2,8.5-3.5s3.7-5.1,3.7-8.2
							c-2.3-1.9-5.6-2.8-9.8-2.8c-3.1,0-5.6,0.7-7.6,2.2C-117.6,90.4-118.6,92.2-118.6,94.4 M-108.9,65.3c5.6,0,10,1.5,13.2,4.5
							s4.8,7,4.8,12.2v24.7h-7.2v-5.6h-0.3c-3.1,4.6-7.3,6.9-12.4,6.9c-4.4,0-8.1-1.3-11.1-3.9s-4.5-5.9-4.5-9.8
							c0-4.1,1.6-7.4,4.7-9.9c3.1-2.5,7.3-3.7,12.6-3.7c4.5,0,8.2,0.8,11,2.4v-1.7c0-2.6-1-4.8-3.1-6.7c-2.1-1.8-4.5-2.7-7.3-2.7
							c-4.2,0-7.5,1.8-10,5.3l-6.6-4.2C-121.4,68-116,65.3-108.9,65.3"/>
						<g id="Group-7" transform="translate(15.084923, 3.759447)">
							<polygon id="Fill-5" class="st0" points="-64.6,62.9 -89.8,120.6 -97.5,120.6 -88.2,100.4 -104.7,62.9 -96.5,62.9 
								-84.6,91.6 -84.4,91.6 -72.8,62.9 							"/>
						</g>
					</g>
					<g id="G">
						<path id="Fill-8" class="st1" d="M-169.8,78.7c0-2.4-0.2-4.7-0.6-6.8h-31.7v12.9h18.2c-0.8,4.2-3.1,7.8-6.7,10.2v8.4h10.8
							C-173.4,97.6-169.8,88.9-169.8,78.7"/>
						<path id="Fill-10" class="st2" d="M-202.1,111.6c9.1,0,16.7-3,22.3-8.1l-10.8-8.5c-3,2-6.9,3.2-11.5,3.2
							c-8.8,0-16.2-5.9-18.9-13.9h-11.1V93C-226.6,104-215.2,111.6-202.1,111.6"/>
						<path id="Fill-12" class="st3" d="M-221,84.4c-0.7-2-1.1-4.2-1.1-6.4c0-2.2,0.4-4.4,1.1-6.4v-8.7h-11.1
							c-2.3,4.5-3.6,9.7-3.6,15.1s1.3,10.6,3.6,15.1L-221,84.4z"/>
						<path id="Fill-14" class="st4" d="M-202.1,57.6c5,0,9.4,1.7,12.9,5l0,0l9.6-9.6c-5.8-5.4-13.4-8.8-22.5-8.8
							c-13.1,0-24.5,7.5-30.1,18.5l11.2,8.7C-218.3,63.5-210.8,57.6-202.1,57.6"/>
					</g>
				</g>
			</g>
		</g>
	</g>
</g>
</svg>
