<?xml version="1.0" encoding="utf-8"?>
<!-- Generator: Adobe Illustrator 24.0.0, SVG Export Plug-In . SVG Version: 6.00 Build 0)  -->
<svg version="1.1" id="Layer_1" xmlns="http://www.w3.org/2000/svg" xmlns:xlink="http://www.w3.org/1999/xlink" x="0px" y="0px"
	 viewBox="0 0 265 170" style="enable-background:new 0 0 265 170;" xml:space="preserve">
<g id="id6" transform="matrix(1.0,0,0,1.0,1596.0,0.0)">
	<g id="tpyqJ8.tif_2_">
	</g>
	<g id="RHc8AJ.tif_2_">
	</g>
	<g id="UI">
		<g id="Product---business-_x28_desktop_x29_" transform="translate(-676.000000, -1589.000000)">
			<path id="Page-1" d="M-842.5,1695.8h9.2v-43.4h-9.2V1695.8z M-783.8,1670.8v-3.9h-0.2l0,0h-8.1l0,0h-0.4v29h8.7v-15.2
				c0-4.4,4.9-6.3,8.4-5.4h0.1v-8.4C-779,1666.8-782.1,1668.4-783.8,1670.8L-783.8,1670.8z M-813.6,1689.1c-4.5,0-8.2-3.5-8.2-7.8
				s3.7-7.8,8.2-7.8s8.2,3.5,8.2,7.8C-805.5,1685.6-809.1,1689.1-813.6,1689.1L-813.6,1689.1z M-805.5,1668.8
				c-2.5-1.8-5.5-2.8-8.9-2.8c-8.5,0-15.2,6.9-15.2,15.3s6.9,15.2,15.2,15.2c3.3,0,6.3-1.1,8.9-2.8v2h7.5v-29h-7.5V1668.8z
				 M-753.6,1666.1c-3.5,0-6.8,1.1-8.9,4v-3.2h-0.2l0,0h-8.1l0,0h-0.5v29h8.7V1680c0-4.4,2.9-6.5,6.5-6.5c3.8,0,6,2.3,6,6.5v15.9
				h8.7v-18.4C-741.3,1670.7-746.8,1666.1-753.6,1666.1L-753.6,1666.1z M-697.5,1685.5c-3,0-5.5,2.5-5.5,5.5s2.5,5.5,5.5,5.5
				s5.5-2.5,5.5-5.5C-692,1687.9-694.5,1685.5-697.5,1685.5L-697.5,1685.5z M-722.3,1689.1c-4.5,0-8.2-3.5-8.2-7.8s3.7-7.8,8.2-7.8
				s8.2,3.5,8.2,7.8S-717.8,1689.1-722.3,1689.1L-722.3,1689.1z M-714.1,1668.8c-2.5-1.8-5.5-2.8-8.9-2.8c-8.5,0-15.3,6.9-15.3,15.3
				s6.9,15.2,15.3,15.2c3.3,0,6.3-1.1,8.9-2.8v2h7.5v-29h-7.5V1668.8z M-701.1,1667.4h0.4c0.2,0,0.4,0.2,0.4,0.3
				c0,0.2-0.1,0.3-0.4,0.3h-0.4V1667.4z M-701.1,1668.4h0.4l0.4,0.8h0.4l-0.4-0.8c0.2-0.1,0.4-0.3,0.4-0.6c0-0.4-0.3-0.7-0.8-0.7
				h-0.8v2.2h0.4V1668.4L-701.1,1668.4z M-883,1695.8h9.6v-43.4h-9.6V1695.8z M-848.8,1652.4h-9.3c-0.2,9.8-5.9,18.3-14,22.4
				l14.4,20.9h11.7l-13.1-19C-852.5,1670.4-848.8,1661.7-848.8,1652.4L-848.8,1652.4z M-700.8,1666.4c0.9,0,1.7,0.8,1.7,1.7
				s-0.8,1.7-1.7,1.7s-1.7-0.8-1.7-1.7S-701.8,1666.4-700.8,1666.4L-700.8,1666.4z M-700.8,1670.2c1.2,0,2.1-0.9,2.1-2.1
				s-0.9-2.1-2.1-2.1c-1.2,0-2.1,0.9-2.1,2.1S-702,1670.2-700.8,1670.2L-700.8,1670.2z"/>
		</g>
	</g>
</g>
</svg>
