<?xml version="1.0" encoding="utf-8"?>
<!-- Generator: Adobe Illustrator 24.0.0, SVG Export Plug-In . SVG Version: 6.00 Build 0)  -->
<svg version="1.1" id="Layer_1" xmlns="http://www.w3.org/2000/svg" xmlns:xlink="http://www.w3.org/1999/xlink" x="0px" y="0px"
	 viewBox="0 0 265 170" style="enable-background:new 0 0 265 170;" xml:space="preserve">
<style type="text/css">
	.st0{fill:#6C6BBD;}
	.st1{fill:#D32011;}
	.st2{fill:#0099DF;}
	.st3{fill:#110F0D;}
</style>
<g id="id4" transform="matrix(1.0,0,0,1.0,1064.0,0.0)">
	<g>
		<polygon class="st0" points="-911.9,108.6 -951,108.6 -951,38.3 -911.9,38.3 		"/>
		<path class="st1" d="M-948.6,73.5c0-14.3,6.7-27,17.1-35.1c-7.6-6-17.2-9.6-27.6-9.6c-24.7,0-44.7,20-44.7,44.7s20,44.7,44.7,44.7
			c10.4,0,20-3.6,27.6-9.6C-941.9,100.4-948.6,87.8-948.6,73.5"/>
		<path class="st2" d="M-859.2,73.5c0,24.7-20,44.7-44.7,44.7c-10.4,0-20-3.6-27.6-9.6c10.4-8.2,17.1-20.9,17.1-35.1
			s-6.7-27-17.1-35.1c7.6-6,17.2-9.6,27.6-9.6C-879.2,28.8-859.2,48.8-859.2,73.5"/>
		<path class="st3" d="M-898.7,128.6c0.5,0,1.3,0.1,1.8,0.3l-0.8,2.4c-0.5-0.2-1.1-0.3-1.6-0.3c-1.7,0-2.5,1.1-2.5,3.1v6.7h-2.6
			v-11.9h2.6v1.4C-901.2,129.2-900.2,128.6-898.7,128.6L-898.7,128.6z M-908.3,131.1h-4.2v5.4c0,1.2,0.4,2,1.7,2
			c0.7,0,1.5-0.2,2.3-0.7l0.7,2.2c-0.8,0.6-2.1,0.9-3.2,0.9c-3.1,0-4.1-1.6-4.1-4.4v-5.4h-2.4v-2.4h2.4v-3.6h2.6v3.6h4.2V131.1
			L-908.3,131.1z M-941.3,133.8c0.3-1.7,1.3-2.9,3.2-2.9c1.7,0,2.7,1,3,2.9H-941.3z M-932.5,134.8c0-3.7-2.3-6.2-5.6-6.2
			c-3.5,0-5.9,2.5-5.9,6.2c0,3.8,2.5,6.2,6.1,6.2c1.8,0,3.4-0.4,4.9-1.7l-1.3-1.9c-1,0.8-2.3,1.2-3.4,1.2c-1.7,0-3.2-0.8-3.5-2.9
			h8.8C-932.5,135.4-932.5,135.1-932.5,134.8L-932.5,134.8z M-921.1,131.8c-0.7-0.4-2.2-1-3.7-1c-1.4,0-2.3,0.5-2.3,1.4
			c0,0.8,0.9,1,2,1.2l1.2,0.2c2.6,0.4,4.1,1.5,4.1,3.6c0,2.3-2,3.9-5.4,3.9c-1.9,0-3.7-0.5-5.1-1.5l1.2-2c0.9,0.7,2.2,1.2,3.9,1.2
			c1.8,0,2.7-0.5,2.7-1.4c0-0.7-0.7-1-2.1-1.2l-1.2-0.2c-2.7-0.4-4.1-1.6-4.1-3.5c0-2.4,1.9-3.8,4.9-3.8c1.9,0,3.6,0.4,4.8,1.2
			L-921.1,131.8L-921.1,131.8z M-889.3,130.9c-0.5,0-1,0.1-1.5,0.3s-0.8,0.4-1.2,0.8c-0.4,0.4-0.6,0.7-0.8,1.2
			c-0.2,0.5-0.3,1-0.3,1.5c0,0.6,0.1,1.1,0.3,1.5c0.2,0.5,0.5,0.9,0.8,1.2s0.7,0.6,1.2,0.8s0.9,0.3,1.5,0.3c0.6,0,1-0.1,1.5-0.3
			s0.9-0.4,1.2-0.8c0.3-0.3,0.6-0.7,0.8-1.2c0.2-0.5,0.3-1,0.3-1.5c0-0.6-0.1-1.1-0.3-1.5c-0.2-0.5-0.5-0.9-0.8-1.2
			c-0.3-0.3-0.7-0.6-1.2-0.8S-888.8,130.9-889.3,130.9L-889.3,130.9z M-889.3,128.6c0.9,0,1.8,0.2,2.6,0.5s1.5,0.8,2,1.3
			c0.6,0.6,1,1.2,1.3,2c0.3,0.8,0.5,1.6,0.5,2.5s-0.2,1.7-0.5,2.5c-0.3,0.8-0.8,1.4-1.3,2c-0.6,0.6-1.3,1-2,1.3
			c-0.8,0.3-1.6,0.5-2.6,0.5s-1.8-0.2-2.6-0.5s-1.5-0.8-2-1.3c-0.6-0.6-1-1.2-1.3-2s-0.5-1.6-0.5-2.5s0.2-1.7,0.5-2.5s0.8-1.4,1.3-2
			c0.6-0.6,1.2-1,2-1.3C-891.1,128.6-890.2,128.6-889.3,128.6L-889.3,128.6z M-956.4,134.8c0-2.1,1.4-3.8,3.6-3.8
			c2.1,0,3.6,1.6,3.6,3.8s-1.4,3.8-3.6,3.8C-955,138.6-956.4,136.8-956.4,134.8L-956.4,134.8z M-946.8,134.8v-5.9h-2.6v1.4
			c-0.8-1.1-2.1-1.7-3.7-1.7c-3.3,0-5.9,2.6-5.9,6.2c0,3.6,2.6,6.2,5.9,6.2c1.7,0,2.9-0.7,3.7-1.7v1.4h2.6V134.8z M-961.3,140.6
			v-7.4c0-2.8-1.8-4.7-4.7-4.7c-1.5,0-3.1,0.4-4.2,2.1c-0.8-1.3-2.1-2.1-3.9-2.1c-1.3,0-2.5,0.4-3.5,1.8v-1.5h-2.6v11.9h2.7v-6.6
			c0-2.1,1.1-3.2,2.9-3.2c1.7,0,2.6,1.1,2.6,3.1v6.6h2.6v-6.6c0-2.1,1.2-3.2,2.9-3.2c1.8,0,2.6,1.1,2.6,3.1v6.6L-961.3,140.6
			L-961.3,140.6z"/>
	</g>
</g>
</svg>
