<?xml version="1.0" encoding="utf-8"?>
<!-- Generator: Adobe Illustrator 24.0.0, SVG Export Plug-In . SVG Version: 6.00 Build 0)  -->
<svg version="1.1" id="Layer_1" xmlns="http://www.w3.org/2000/svg" xmlns:xlink="http://www.w3.org/1999/xlink" x="0px" y="0px"
	 viewBox="0 0 265 170" style="enable-background:new 0 0 265 170;" xml:space="preserve">
<style type="text/css">
	.st0{fill-rule:evenodd;clip-rule:evenodd;fill:#FD0C15;}
	.st1{fill-rule:evenodd;clip-rule:evenodd;fill:#F3AE12;}
</style>
<g id="id4" transform="matrix(1.0,0,0,1.0,1064.0,0.0)">
	<g id="tpyqJ8.tif_2_">
	</g>
	<g id="RHc8AJ.tif_2_">
	</g>
	<g id="MRG7VI.tif_1_">
	</g>
	<g id="ddSF7z.tif_1_">
	</g>
	<g>
		<path class="st0" d="M-844,77.5c0-2.1,1.7-3.9,3.7-3.9c2.1,0,3.7,1.7,3.7,3.9c0,2.1-1.6,3.9-3.7,3.9
			C-842.3,81.4-844,79.7-844,77.5L-844,77.5L-844,77.5z M-840.3,80.5c1.6,0,2.8-1.3,2.8-3s-1.3-3-2.8-3c-1.6,0-2.8,1.3-2.8,3
			S-842,80.5-840.3,80.5L-840.3,80.5L-840.3,80.5z M-840.8,79.2h-0.8v-3.4h1.4c0.3,0,0.6,0,0.8,0.2c0.3,0.2,0.4,0.5,0.4,0.8
			c0,0.4-0.2,0.7-0.6,0.8l0.6,1.5h-0.8l-0.5-1.3h-0.6v1.4H-840.8L-840.8,79.2z M-840.8,77.3h0.4c0.2,0,0.3,0,0.4-0.1
			c0.1-0.1,0.2-0.2,0.2-0.4c0-0.1-0.1-0.3-0.2-0.3c-0.1-0.1-0.3-0.1-0.4-0.1h-0.4V77.3L-840.8,77.3L-840.8,77.3z"/>
		<path class="st0" d="M-897,51.7l-1,6.6c-2.2-1.2-3.8-1.6-5.5-1.6c-4.6,0-7.8,4.7-7.8,11.4c0,4.6,2.2,7.4,5.8,7.4
			c1.5,0,3.2-0.5,5.3-1.6l-1.1,6.9c-2.3,0.7-3.7,0.9-5.5,0.9c-6.7,0-10.8-5-10.8-13.1c0-10.8,5.7-18.5,13.9-18.5
			c1.1,0,2,0.1,2.8,0.3l2.6,0.7C-897.7,51.4-897.5,51.5-897,51.7L-897,51.7L-897,51.7z"/>
		<path class="st0" d="M-917.5,56.2c-0.2-0.1-0.4-0.1-0.6-0.1c-2,0-3.2,1.1-5.1,4l0.6-3.7h-5.6l-3.8,24.7h6.2
			c2.2-15.1,2.8-17.7,5.8-17.7c0.2,0,0.2,0,0.4,0c0.6-3,1.3-5.1,2.3-7.2L-917.5,56.2L-917.5,56.2L-917.5,56.2z"/>
		<path class="st0" d="M-954.5,80.8c-1.7,0.6-3,0.8-4.4,0.8c-3.1,0-4.9-1.9-4.9-5.4c0-0.7,0.1-1.5,0.2-2.2l0.4-2.4l0.3-2l2.7-16.8
			h6.2l-0.7,3.6h3.2l-0.9,6h-3.1l-1.6,10.3c-0.1,0.4-0.1,0.8-0.1,1c0,1.3,0.7,1.8,2.1,1.8c0.7,0,1.2-0.1,1.7-0.2L-954.5,80.8
			L-954.5,80.8L-954.5,80.8z"/>
		<path class="st0" d="M-978.8,64.2c0,3.1,1.5,5.3,4.7,6.9c2.5,1.2,2.9,1.6,2.9,2.7c0,1.5-1.1,2.2-3.5,2.2c-1.8,0-3.5-0.3-5.5-1
			l-0.8,5.7l0.3,0.1l1.1,0.2c0.4,0.1,0.9,0.2,1.6,0.2c1.5,0.1,2.6,0.2,3.4,0.2c6.5,0,9.5-2.6,9.5-8.2c0-3.4-1.2-5.4-4.4-6.9
			c-2.6-1.2-2.9-1.5-2.9-2.7c0-1.3,1-2,3-2c1.2,0,2.9,0.2,4.4,0.4l0.9-5.7c-1.6-0.3-4-0.5-5.4-0.5
			C-976.5,55.9-978.8,59.6-978.8,64.2L-978.8,64.2L-978.8,64.2z"/>
		<path class="st0" d="M-847.7,81.1h-5.9l0.3-2.4c-1.7,1.9-3.5,2.7-5.7,2.7c-4.5,0-7.5-4.1-7.5-10.2c0-8.2,4.6-15.2,10.1-15.2
			c2.4,0,4.2,1.1,5.9,3.4l1.3-8.7h6.1L-847.7,81.1L-847.7,81.1L-847.7,81.1z M-856.8,75.3c2.9,0,4.9-3.4,4.9-8.3
			c0-3.1-1.2-4.9-3.3-4.9c-2.8,0-4.8,3.5-4.8,8.3C-860,73.6-858.8,75.3-856.8,75.3L-856.8,75.3L-856.8,75.3z"/>
		<path class="st0" d="M-934.8,80.6c-2.1,0.7-4.1,1-6.4,1c-6.9,0-10.5-3.8-10.5-11.1c0-8.5,4.6-14.7,10.8-14.7c5.1,0,8.3,3.5,8.3,9
			c0,1.8-0.2,3.6-0.8,6.1h-12.3c-0.1,0.4-0.1,0.6-0.1,0.8c0,2.9,1.8,4.4,5.4,4.4c2.2,0,4.2-0.5,6.4-1.6L-934.8,80.6L-934.8,80.6
			L-934.8,80.6z M-938.3,65.8c0.1-0.5,0.1-1,0.1-1.2c0-2-1.1-3.2-2.9-3.2c-2,0-3.4,1.6-3.9,4.4H-938.3L-938.3,65.8L-938.3,65.8z"/>
		<polygon class="st0" points="-1003.7,81.1 -1009.8,81.1 -1006.2,57.7 -1014.2,81.1 -1018.3,81.1 -1018.8,57.9 -1022.7,81.1 
			-1028.3,81.1 -1023.5,50.7 -1014.7,50.7 -1014.5,69.5 -1008.5,50.7 -998.8,50.7 		"/>
		<path class="st0" d="M-987.7,70.1c-0.7-0.1-1-0.1-1.4-0.1c-3.5,0-5.3,1.3-5.3,3.7c0,1.5,0.9,2.5,2.2,2.5
			C-989.7,76.2-987.8,73.7-987.7,70.1L-987.7,70.1L-987.7,70.1z M-983.2,81.1h-5.1l0.1-2.6c-1.6,2.1-3.6,3-6.5,3
			c-3.4,0-5.6-2.7-5.6-6.7c0-6,4-9.5,10.8-9.5c0.7,0,1.6,0.1,2.5,0.2c0.2-0.8,0.2-1.2,0.2-1.6c0-1.6-1.1-2.2-4-2.2
			c-1.7,0-3.7,0.3-5.1,0.7l-0.8,0.3l-0.6,0.2l0.8-5.5c3.1-1,5.1-1.3,7.4-1.3c5.3,0,8.1,2.5,8.1,7.2c0,1.2-0.1,2.1-0.5,4.9l-1.2,8.8
			l-0.2,1.6l-0.2,1.2l-0.1,0.9V81.1L-983.2,81.1L-983.2,81.1z"/>
		<path class="st0" d="M-886.2,70.1c-0.6-0.1-1-0.1-1.4-0.1c-3.5,0-5.3,1.3-5.3,3.7c0,1.5,0.9,2.5,2.2,2.5
			C-888.2,76.2-886.3,73.7-886.2,70.1L-886.2,70.1L-886.2,70.1z M-881.8,81.1h-5.2l0.1-2.6c-1.6,2.1-3.6,3-6.5,3
			c-3.4,0-5.6-2.7-5.6-6.7c0-6,4-9.5,10.8-9.5c0.7,0,1.6,0.1,2.5,0.2c0.2-0.8,0.2-1.2,0.2-1.6c0-1.6-1.1-2.2-4-2.2
			c-1.7,0-3.7,0.3-5.1,0.7l-0.9,0.2l-0.6,0.2l0.8-5.5c3.1-1,5.1-1.3,7.4-1.3c5.3,0,8.1,2.5,8.1,7.2c0,1.2-0.1,2.1-0.5,4.9l-1.3,8.7
			l-0.2,1.6l-0.2,1.2l-0.1,0.8L-881.8,81.1L-881.8,81.1L-881.8,81.1z"/>
		<path class="st0" d="M-864.5,56.2c-0.2-0.1-0.4-0.1-0.6-0.1c-2,0-3.2,1.1-5.1,4l0.6-3.7h-5.6l-3.8,24.7h6.2
			c2.2-15.1,2.8-17.7,5.8-17.7c0.2,0,0.2,0,0.4,0c0.6-3,1.3-5.1,2.3-7.2L-864.5,56.2L-864.5,56.2L-864.5,56.2z"/>
		<path class="st1" d="M-890.5,105c0,5.6-1.7,8.9-4.5,8.9c-2,0.1-3.2-2.2-3.2-5.5c0-3.9,1.8-8.4,4.6-8.4
			C-891.2,100.1-890.5,102.5-890.5,105L-890.5,105L-890.5,105z M-884.3,105.1c0-6.2-3.1-11.1-8.8-11.1c-6.7,0-11,5.9-11,14.5
			c0,6.2,2.6,11.3,8.8,11.3C-889,119.9-884.3,115.4-884.3,105.1L-884.3,105.1L-884.3,105.1z"/>
		<path class="st1" d="M-902.2,89.7l-1,6.6c-2.1-1.2-3.5-1.6-5.1-1.6c-4.3,0-7.3,4.7-7.3,11.4c0,4.6,2,7.4,5.4,7.4
			c1.5,0,3-0.5,4.9-1.6l-1,6.9c-2.1,0.7-3.5,0.9-5.1,0.9c-6.2,0-10.1-5-10.1-13.1c0-10.8,5.4-18.5,13-18.5c1,0,1.8,0.1,2.6,0.3
			l2.3,0.7C-902.8,89.4-902.7,89.4-902.2,89.7L-902.2,89.7L-902.2,89.7z"/>
		<path class="st1" d="M-940.3,94.2c-0.2-0.1-0.4-0.1-0.6-0.1c-1.9,0-3,1.1-4.8,4l0.6-3.7h-5.2l-3.5,24.7h5.8
			c2.1-15.1,2.6-17.7,5.4-17.7c0.2,0,0.2,0,0.4,0.1c0.5-3,1.2-5.1,2.2-7.2L-940.3,94.2L-940.3,94.2L-940.3,94.2z"/>
		<path class="st1" d="M-865,118.9h-5.5l0.3-2.4c-1.6,1.9-3.2,2.7-5.4,2.7c-4.2,0-7-4.1-7-10.2c0-8.2,4.3-15.2,9.4-15.2
			c2.2,0,4,1.1,5.5,3.4l1.3-8.7h5.7L-865,118.9L-865,118.9L-865,118.9z M-873.5,113c2.7,0,4.6-3.4,4.6-8.3c0-3.1-1.1-4.8-3.1-4.8
			c-2.6,0-4.5,3.4-4.5,8.3C-876.5,111.4-875.5,113-873.5,113L-873.5,113L-873.5,113z"/>
		<path class="st1" d="M-994.5,118.7c-2,0.7-3.9,1-5.9,1c-6.4,0-9.8-3.8-9.8-11.1c0-8.4,4.3-14.7,10.1-14.7c4.8,0,7.8,3.5,7.8,9
			c0,1.8-0.2,3.6-0.7,6.1h-11.6c-0.1,0.4-0.1,0.6-0.1,0.8c0,2.9,1.7,4.3,5.1,4.3c2.1,0,3.9-0.5,6-1.6L-994.5,118.7L-994.5,118.7
			L-994.5,118.7z M-997.8,104c0-0.5,0.1-1,0.1-1.2c0-2-1-3.2-2.7-3.2c-1.8,0-3.1,1.6-3.7,4.4H-997.8L-997.8,104L-997.8,104z"/>
		<path class="st1" d="M-925.8,118.7c-2,0.7-3.9,1-5.9,1c-6.5,0-9.8-3.8-9.8-11.1c0-8.4,4.3-14.7,10.1-14.7c4.8,0,7.8,3.5,7.8,9
			c0,1.8-0.2,3.6-0.7,6.1h-11.5c-0.1,0.4-0.1,0.6-0.1,0.8c0,2.9,1.7,4.3,5.1,4.3c2.1,0,3.9-0.5,6-1.6L-925.8,118.7L-925.8,118.7
			L-925.8,118.7z M-929,104c0.1-0.5,0.1-1,0.1-1.2c0-2-1-3.2-2.7-3.2c-1.8,0-3.1,1.6-3.7,4.4H-929L-929,104L-929,104z"/>
		<path class="st1" d="M-845.3,118.7c-2,0.7-3.9,1-5.9,1c-6.4,0-9.8-3.8-9.8-11.1c0-8.4,4.3-14.7,10.1-14.7c4.8,0,7.8,3.5,7.8,9
			c0,1.8-0.2,3.6-0.7,6.1h-11.5c-0.1,0.4-0.1,0.6-0.1,0.8c0,2.9,1.7,4.3,5.1,4.3c2.1,0,3.9-0.5,6-1.6L-845.3,118.7L-845.3,118.7
			L-845.3,118.7z M-848.5,104c0-0.5,0.1-1,0.1-1.2c0-2-1-3.2-2.7-3.2c-1.8,0-3.1,1.6-3.7,4.4H-848.5L-848.5,104L-848.5,104z"/>
		<path class="st1" d="M-1011.7,95.3c-1.1-0.8-2.7-1.4-4.8-1.4c-2.3,0-4.2,0.5-4.2,3c0,4.4,8.5,2.7,8.5,12.1
			c0,8.6-5.6,10.8-10.7,10.8c-2.2,0-4.9-0.7-6.8-1.6l1.4-6.3c1.2,1.1,3.5,1.8,5.4,1.8c1.8,0,4.6-0.5,4.6-3.7c0-5-8.5-3.1-8.5-11.9
			c0-8,5-10.3,9.8-10.3c2.7,0,5.3,0.4,6.7,1.4L-1011.7,95.3L-1011.7,95.3L-1011.7,95.3z"/>
		<path class="st1" d="M-977.7,118.7c-1.2,0.6-2.8,1-5.1,1c-5,0-8.2-5-8.2-11.2c0-8.1,4.5-14.4,11.2-14.4c1.5,0,3.7,0.6,5.4,1.6
			l-1.3,5.9c-1.2-0.8-2.5-1.3-3.9-1.3c-3.1,0-5.3,2.9-5.3,7.9c0,2.9,1.6,5.3,4.1,5.3c1.5,0,2.6-0.3,3.9-1.1L-977.7,118.7
			L-977.7,118.7L-977.7,118.7z"/>
		<path class="st1" d="M-956,112.5c-0.3,2.1-0.6,4.2-0.7,6.4h-5.5l0.4-4h-0.1c-1.7,2.7-3.5,4.5-6.7,4.5c-3.5,0-5.4-3.7-5.4-8.4
			c0-1.7,0.1-2.6,0.4-5.1l1.7-11.4h6.2l-1.7,11.5c-0.2,1.2-0.4,2.5-0.4,3.7c0,1.5,0.7,2.9,2.3,2.8c2.5,0,4-3.1,4.5-6.7l1.7-11.3h6
			L-956,112.5L-956,112.5L-956,112.5z"/>
		<polygon class="st1" points="-839.5,118.6 -840.5,118.6 -840.5,114.6 -841.8,114.6 -841.8,113.7 -838.2,113.7 -838.2,114.6 
			-839.5,114.6 		"/>
		<polygon class="st1" points="-833.3,118.6 -834.2,118.6 -834.2,114.5 -834.2,114.5 -835,118.6 -836,118.6 -836.8,114.5 
			-836.8,114.5 -836.8,118.6 -837.8,118.6 -837.8,113.7 -836.3,113.7 -835.5,117.6 -835.5,117.6 -834.7,113.7 -833.3,113.7 		"/>
	</g>
</g>
</svg>
