<?xml version="1.0" encoding="utf-8"?>
<!-- Generator: Adobe Illustrator 24.0.0, SVG Export Plug-In . SVG Version: 6.00 Build 0)  -->
<svg version="1.1" id="Layer_1" xmlns="http://www.w3.org/2000/svg" xmlns:xlink="http://www.w3.org/1999/xlink" x="0px" y="0px"
	 viewBox="0 0 265 170" style="enable-background:new 0 0 265 170;" xml:space="preserve">
<style type="text/css">
	.st0{fill:#FF5F00;}
	.st1{fill:#EB001B;}
	.st2{fill:#F79E1B;}
</style>
<g id="id2" transform="matrix(1.0,0,0,1.0,532.0,0.0)">
	<g id="tpyqJ8.tif">
	</g>
	<g id="RHc8AJ.tif">
	</g>
	<g id="MRG7VI.tif">
	</g>
	<g id="ddSF7z.tif">
	</g>
	<g>
		<path d="M-442.5,140.7v-7.5c0-2.9-1.7-4.7-4.7-4.7c-1.5,0-3.1,0.5-4.2,2.1c-0.9-1.4-2.1-2.1-4-2.1c-1.2,0-2.5,0.4-3.5,1.7v-1.5
			h-2.6v12h2.6v-6.6c0-2.1,1.1-3.1,2.9-3.1c1.8,0,2.6,1.1,2.6,3.1v6.6h2.6v-6.6c0-2.1,1.2-3.1,2.9-3.1s2.6,1.1,2.6,3.1v6.6H-442.5
			L-442.5,140.7z M-403.7,128.7h-4.3v-3.6h-2.6v3.6h-2.4v2.4h2.4v5.5c0,2.7,1.1,4.4,4.1,4.4c1.1,0,2.4-0.4,3.2-0.9l-0.8-2.2
			c-0.8,0.5-1.6,0.6-2.2,0.6c-1.2,0-1.7-0.8-1.7-2v-5.4h4.2v-2.4H-403.7z M-381.5,128.5c-1.5,0-2.5,0.8-3.1,1.7v-1.5h-2.6v12h2.6
			V134c0-2,0.9-3.1,2.5-3.1c0.5,0,1.1,0.1,1.6,0.2l0.8-2.5C-380.3,128.5-381,128.5-381.5,128.5L-381.5,128.5L-381.5,128.5z
			 M-415.1,129.7c-1.2-0.9-3-1.2-4.9-1.2c-3,0-5,1.5-5,3.9c0,2,1.5,3.1,4.1,3.5l1.2,0.1c1.4,0.2,2.1,0.6,2.1,1.2
			c0,0.9-1,1.5-2.7,1.5c-1.7,0-3.1-0.6-4-1.2l-1.2,2c1.4,1,3.2,1.5,5.1,1.5c3.5,0,5.5-1.6,5.5-3.9c0-2.1-1.6-3.2-4.1-3.6l-1.2-0.1
			c-1.1-0.1-2-0.4-2-1.1c0-0.9,0.9-1.4,2.2-1.4c1.5,0,3,0.6,3.7,1L-415.1,129.7L-415.1,129.7z M-345.5,128.5c-1.5,0-2.5,0.8-3.1,1.7
			v-1.5h-2.6v12h2.6V134c0-2,0.9-3.1,2.5-3.1c0.5,0,1.1,0.1,1.6,0.2l0.8-2.5C-344.3,128.5-345,128.5-345.5,128.5L-345.5,128.5
			L-345.5,128.5z M-378.9,134.7c0,3.6,2.5,6.2,6.4,6.2c1.7,0,3-0.4,4.2-1.4l-1.2-2.1c-1,0.8-2,1.1-3.1,1.1c-2.1,0-3.6-1.5-3.6-3.9
			c0-2.2,1.5-3.7,3.6-3.9c1.1,0,2.1,0.4,3.1,1.1l1.2-2.1c-1.2-1-2.5-1.4-4.2-1.4C-376.4,128.5-378.9,131.1-378.9,134.7L-378.9,134.7
			L-378.9,134.7z M-354.7,134.7v-6h-2.6v1.5c-0.9-1.1-2.1-1.7-3.7-1.7c-3.4,0-6,2.6-6,6.2s2.6,6.2,6,6.2c1.7,0,3-0.6,3.7-1.7v1.5
			h2.6V134.7z M-364.3,134.7c0-2.1,1.4-3.9,3.6-3.9c2.1,0,3.6,1.6,3.6,3.9c0,2.1-1.5,3.9-3.6,3.9
			C-363,138.4-364.3,136.8-364.3,134.7L-364.3,134.7z M-395.6,128.5c-3.5,0-6,2.5-6,6.2s2.5,6.2,6.1,6.2c1.7,0,3.5-0.5,4.9-1.6
			l-1.2-1.9c-1,0.8-2.2,1.2-3.5,1.2c-1.6,0-3.2-0.8-3.6-2.9h8.9v-1C-390,131-392.3,128.5-395.6,128.5L-395.6,128.5L-395.6,128.5z
			 M-395.6,130.7c1.6,0,2.7,1,3,2.9h-6.2C-398.6,132-397.5,130.7-395.6,130.7L-395.6,130.7z M-330.7,134.7V124h-2.6v6.2
			c-0.9-1.1-2.1-1.7-3.7-1.7c-3.4,0-6,2.6-6,6.2s2.6,6.2,6,6.2c1.7,0,3-0.6,3.7-1.7v1.5h2.6V134.7z M-340.3,134.7
			c0-2.1,1.4-3.9,3.6-3.9c2.1,0,3.6,1.6,3.6,3.9c0,2.1-1.5,3.9-3.6,3.9C-338.9,138.4-340.3,136.8-340.3,134.7L-340.3,134.7z
			 M-427.8,134.7v-6h-2.6v1.5c-0.9-1.1-2.1-1.7-3.7-1.7c-3.4,0-6,2.6-6,6.2s2.6,6.2,6,6.2c1.7,0,3-0.6,3.7-1.7v1.5h2.6V134.7z
			 M-437.5,134.7c0-2.1,1.4-3.9,3.6-3.9c2.1,0,3.6,1.6,3.6,3.9c0,2.1-1.5,3.9-3.6,3.9C-436.1,138.4-437.5,136.8-437.5,134.7z"/>
		<rect x="-415.9" y="37.9" class="st0" width="39.3" height="70.6"/>
		<path class="st1" d="M-413.4,73.1c0-14.3,6.7-27,17.1-35.3c-7.6-6-17.2-9.6-27.7-9.6c-24.8,0-44.9,20.1-44.9,44.9
			S-448.8,118-424,118c10.5,0,20.1-3.6,27.7-9.6C-406.7,100.3-413.4,87.5-413.4,73.1z"/>
		<path class="st2" d="M-323.7,73.1c0,24.8-20.1,44.9-44.9,44.9c-10.5,0-20.1-3.6-27.7-9.6c10.5-8.2,17.1-20.9,17.1-35.3
			s-6.7-27-17.1-35.3c7.6-6,17.2-9.6,27.7-9.6C-343.8,28.3-323.7,48.5-323.7,73.1z"/>
	</g>
</g>
</svg>
