<?xml version="1.0" encoding="utf-8"?>
<!-- Generator: Adobe Illustrator 24.0.0, SVG Export Plug-In . SVG Version: 6.00 Build 0)  -->
<svg version="1.1" id="Layer_1" xmlns="http://www.w3.org/2000/svg" xmlns:xlink="http://www.w3.org/1999/xlink" x="0px" y="0px"
	 viewBox="0 0 265 170" style="enable-background:new 0 0 265 170;" xml:space="preserve">
<style type="text/css">
	.st0{fill:#5A78FF;}
</style>
<g id="id2" transform="matrix(1.0,0,0,1.0,532.0,0.0)">
	<g id="tpyqJ8.tif">
	</g>
	<g id="RHc8AJ.tif">
	</g>
	<g id="MRG7VI.tif">
	</g>
	<g id="ddSF7z.tif">
	</g>
	<g>
		<path class="st0" d="M-489.6,93.2l7.1-22.5c0.1-0.3,0.4-0.6,0.7-0.6h3.5c0.3,0,0.6,0.3,0.7,0.6l5.5,14.2c0.1,0.3,0.4,0.3,0.5,0
			l5.5-14.2c0.1-0.3,0.4-0.6,0.7-0.6h3.6c0.3,0,0.6,0.2,0.7,0.6l7,22.5c0.1,0.5-0.1,0.8-0.5,0.8h-4.3c-0.4,0-0.6-0.2-0.6-0.5
			l-4.5-14.6c-0.1-0.3-0.4-0.3-0.5,0l-5.3,14.5c-0.2,0.4-0.4,0.6-0.8,0.6h-2.5c-0.4,0-0.6-0.2-0.7-0.6l-5.5-14.5
			c-0.1-0.3-0.4-0.3-0.5,0l-4.6,14.6c-0.1,0.4-0.4,0.5-0.7,0.5h-4C-489.5,94-489.9,93.7-489.6,93.2z"/>
		<path class="st0" d="M-452.8,85.2c0-5.2,4-9.3,9.4-9.3s9.4,4,9.4,9.3c0,5.2-4,9.3-9.4,9.3S-452.8,90.4-452.8,85.2z M-438.6,85.2
			c0-2.7-2.1-4.9-4.6-4.9s-4.6,2.2-4.6,4.9c0,2.7,2.1,4.9,4.6,4.9S-438.6,87.9-438.6,85.2z"/>
		<path class="st0" d="M-425.5,92.6c-0.4-0.3-0.7-0.2-0.7,0.3v0.5c0,0.4-0.3,0.7-0.6,0.7h-3.3c-0.4,0-0.7-0.3-0.7-0.7V70.8
			c0-0.4,0.3-0.7,0.7-0.7h3.5c0.4,0,0.6,0.3,0.6,0.7v6.4c0,0.5,0.3,0.6,0.8,0.2c1.1-0.8,2.6-1.5,4.6-1.5c4.8,0,8.5,4.1,8.5,9.3
			c0,5.2-3.8,9.3-8.6,9.3C-422.8,94.5-424.1,93.6-425.5,92.6z M-416.9,85.2c0-2.7-2.1-4.9-4.7-4.9c-2.5,0-4.6,2.1-4.6,4.9
			c0,2.7,2,4.9,4.6,4.9C-419,90.1-416.9,87.9-416.9,85.2z"/>
		<path class="st0" d="M-409.1,71.8c0-1.4,1.2-2.7,2.7-2.7c1.4,0,2.7,1.2,2.7,2.7c0,1.4-1.2,2.7-2.7,2.7
			C-408,74.5-409.1,73.2-409.1,71.8z M-409,93.3V77.1c0-0.4,0.3-0.7,0.6-0.7h3.5c0.4,0,0.7,0.3,0.7,0.7v16.3c0,0.4-0.3,0.7-0.7,0.7
			h-3.5C-408.6,94-409,93.7-409,93.3z"/>
		<path class="st0" d="M-400.2,88V70.8c0-0.4,0.3-0.7,0.6-0.7h3.5c0.4,0,0.7,0.3,0.7,0.7v17.3c0,1.1,0.5,1.9,1.7,1.9
			c0.4,0,0.7,0.3,0.7,0.7v2.9c0,0.4-0.3,0.6-0.7,0.6C-398.4,94.2-400.2,92.7-400.2,88z"/>
		<path class="st0" d="M-391.8,85.3c0-5.3,3.9-9.3,9.2-9.3c5.2,0,9.1,4.1,9.1,9.4c0,0.6-0.2,1.2-0.8,1.2h-12.1
			c-0.3,0-0.4,0.2-0.4,0.5c0.2,2,2,3.5,4.3,3.5c1.5,0,2.6-0.7,3.3-1.5c0.4-0.4,0.7-0.6,1.1-0.6h3.2c0.6,0,0.8,0.4,0.6,0.9
			c-1.2,3-4.5,5.2-8.4,5.2C-388,94.5-391.8,90.6-391.8,85.3z M-379,83.7c0.2,0,0.4-0.1,0.3-0.4c-0.4-1.9-2-3.3-4-3.3
			c-1.9,0-3.5,1.4-4,3.2c-0.1,0.2,0,0.5,0.3,0.5C-386.4,83.7-379,83.7-379,83.7z"/>
		<path class="st0" d="M-370.6,93.3V70.8c0-0.4,0.3-0.7,0.6-0.7h11.1c5.1,0,8.5,3,8.5,7.9c0,4.8-3.9,8-8.7,8h-5.9
			c-0.4,0-0.6,0.2-0.6,0.7v6.6c0,0.4-0.3,0.7-0.7,0.7h-3.7C-370.4,94-370.6,93.7-370.6,93.3z M-359.1,82c2.4,0,3.8-2.1,3.8-3.9
			c0-1.9-1.3-3.8-3.8-3.8h-5.9c-0.4,0-0.6,0.2-0.6,0.6v6.4c0,0.4,0.2,0.6,0.6,0.6h5.9V82z"/>
		<path class="st0" d="M-348.8,85.2c0-5.3,4-9.3,8.7-9.3c2,0,3.4,0.8,4.7,1.8c0.3,0.3,0.7,0.2,0.7-0.2V77c0-0.4,0.3-0.6,0.6-0.6h3.3
			c0.4,0,0.7,0.3,0.7,0.7v11.6c0,0.9,0.3,1.3,0.9,1.3c0.3,0,0.6,0.2,0.6,0.6v3.1c0,0.3-0.2,0.6-0.6,0.6c-2.3,0-3.7-0.7-4.5-2
			c-0.2-0.4-0.5-0.4-0.8-0.1c-1.4,1.3-3,2.4-5.7,2.4C-344.9,94.5-348.8,90.5-348.8,85.2z M-334.8,85.2c0-2.8-2-4.9-4.6-4.9
			s-4.6,2.2-4.6,4.9c0,2.7,2,4.9,4.6,4.9S-334.8,87.9-334.8,85.2z"/>
		<path class="st0" d="M-327,100.2v-2.8c0-0.4,0.3-0.6,0.7-0.6c2.3,0,4.6-1.2,5.1-3.4c0.1-0.5,0.1-0.9-0.1-1.4l-6.5-14.6
			c-0.2-0.6,0.1-0.9,0.6-0.9h3.5c0.4,0,0.6,0.3,0.7,0.6l4,9.3c0.3,0.7,0.7,0.7,1.1,0l3.9-9.4c0.1-0.4,0.3-0.6,0.7-0.6h3.3
			c0.5,0,0.8,0.4,0.6,0.8L-316,93c-2.4,5.7-5,7.9-10.1,7.9C-326.6,100.9-327,100.5-327,100.2z"/>
	</g>
</g>
</svg>
