<?xml version="1.0" encoding="utf-8"?>
<!-- Generator: Adobe Illustrator 24.0.0, SVG Export Plug-In . SVG Version: 6.00 Build 0)  -->
<svg version="1.1" id="Layer_1" xmlns="http://www.w3.org/2000/svg" xmlns:xlink="http://www.w3.org/1999/xlink" x="0px" y="0px"
	 viewBox="0 0 265 170" style="enable-background:new 0 0 265 170;" xml:space="preserve">
<style type="text/css">
	.st0{fill:#5A78FF;}
	.st1{opacity:0.4;}
	.st2{fill:url(#SVGID_1_);}
</style>
<g id="id1" transform="matrix(1.0,0,0,1.0,266.0,0.0)">
	<g>
		<g>
			<path class="st0" d="M-143.9,142.5c-3.8,0-7.4-2.3-9-6l-33.5-81c-1-2.4-1-5,0-7.4s2.9-4.3,5.3-5.3l35.1-14.6
				c4.9-2.1,10.6,0.3,12.7,5.3l33.5,81c1,2.4,1,5,0,7.4s-2.9,4.3-5.3,5.3l-35.1,14.6C-141.5,142.3-142.7,142.5-143.9,142.5z
				 M-142.4,32.8c-0.6,0-1.2,0.1-1.7,0.3l-35.1,14.6c-1.1,0.5-2,1.3-2.4,2.4c-0.5,1.1-0.5,2.3,0,3.4l33.5,81
				c0.9,2.3,3.6,3.4,5.9,2.4l35.1-14.6l0,0c1.1-0.5,2-1.3,2.4-2.4c0.5-1.1,0.5-2.3,0-3.4l-33.5-81c-0.5-1.1-1.3-2-2.4-2.4
				C-141.2,32.9-141.8,32.8-142.4,32.8z"/>
		</g>
		<path class="st0" d="M-113,87.1c-10,4.2-18.4,9.9-23.9,16.8l-14.2-34.2c6-7.2,13.9-12.7,23.9-16.8c10-4.2,20.2-6.2,28.8-5
			l14.2,34.2C-93.2,81.1-103,82.9-113,87.1z"/>
		<g class="st1">
			
				<linearGradient id="SVGID_1_" gradientUnits="userSpaceOnUse" x1="-409.1903" y1="996.6011" x2="-377.8131" y2="980.5183" gradientTransform="matrix(1 0 0 1 266 -910)">
				<stop  offset="0" style="stop-color:#504678"/>
				<stop  offset="0.9686" style="stop-color:#504678;stop-opacity:0"/>
			</linearGradient>
			<path class="st2" d="M-113,87.1c-10,4.2-18.4,9.9-23.9,16.8l-14.2-34.2c6-7.2,13.9-12.7,23.9-16.8c10-4.2,20.2-6.2,28.8-5
				l14.2,34.2C-93.2,81.1-103,82.9-113,87.1z"/>
		</g>
		<path class="st0" d="M-108.4,97.5c-10.9,0-20.8,2.1-28.5,6.4V69.3c8.3-4.4,17.7-6.4,28.5-6.4c10.9,0,21,2,28.5,6.4v34.6
			C-87.8,99.6-97.5,97.5-108.4,97.5z"/>
	</g>
</g>
</svg>
