<?xml version="1.0" encoding="utf-8"?>
<!-- Generator: Adobe Illustrator 24.0.0, SVG Export Plug-In . SVG Version: 6.00 Build 0)  -->
<svg version="1.1" id="Layer_1" xmlns="http://www.w3.org/2000/svg" xmlns:xlink="http://www.w3.org/1999/xlink" x="0px" y="0px"
	 viewBox="0 0 265 170" style="enable-background:new 0 0 265 170;" xml:space="preserve">
<style type="text/css">
	.st0{fill:#282425;}
</style>
<g id="id5" transform="matrix(1.0,0,0,1.0,1330.0,0.0)">
	<g id="tpyqJ8.tif_3_">
	</g>
	<g id="RHc8AJ.tif_3_">
	</g>
	<g id="MRG7VI.tif_2_">
	</g>
	<g id="ddSF7z.tif_2_">
	</g>
	<g id="WRGggC.tif">
		<g>
			<path class="st0" d="M-1165,111.3c0,3.5,0,7,0,10.5c0,0.6,0.5,1.7-0.5,1.8c-1,0.1-2.4,0.7-3.1-0.4c-0.6-0.9-0.9-0.5-1.5-0.3
				c-0.8,0.4-1.7,0.8-2.6,0.9c-4.9,0.9-7.3-1.2-7.4-6.1c0-2.1,0-4.1,0-6.2c0.1-3.7,2-5.6,5.7-5.6c1.1,0,2.3,0.1,3.4,0.3
				c1.3,0.3,1.7-0.2,1.5-1.4c-0.1-1-0.1-2,0-3c0.1-0.9-0.5-2.1,0.4-2.6c1-0.5,2.3-0.5,3.5-0.5c1,0,0.6,0.9,0.6,1.4
				C-1165,103.9-1165,107.6-1165,111.3z M-1169.5,114.6c0-4.7,0-4.7-3.4-4.8c-2.1-0.1-2.8,0.5-2.8,2.6c0,1.7,0,3.4,0,5.2
				c0,2.5,1.1,3.3,3.5,2.7c1.7-0.5,3.1-1.2,2.7-3.4C-1169.6,116.1-1169.5,115.3-1169.5,114.6z"/>
			<path class="st0" d="M-1138.2,114.9c0,1,0,2,0,3c-0.2,4.2-1.9,6-6,6.4c-2.6,0.2-5.2,0-7.7-0.3c-0.9-0.1-1.1-0.5-1.1-1.3
				c0-7.4,0.1-14.9,0-22.3c0-1.6,1.1-1.2,1.8-1.4c2.6-0.5,2.6-0.5,2.6,2.1c0,1.5,0.1,3.1,0,4.6c-0.1,1.2,0.4,1.3,1.4,1
				c1.3-0.4,2.7-0.7,4.1-0.6c2.9,0.1,4.7,1.7,4.9,4.7C-1138.2,112.2-1138.3,113.6-1138.2,114.9
				C-1138.3,114.9-1138.2,114.9-1138.2,114.9z M-1148.6,115.5c0,1.3,0,2.5,0,3.8c0,0.4-0.2,0.9,0.2,1.1c1.4,0.5,2.9,0.4,4.3,0
				c1-0.3,1.4-1.1,1.4-2.1c0-2.1,0-4.2,0-6.4c0-0.8-0.3-1.5-1.1-1.7c-1.5-0.4-3.1-0.1-4.4,0.7c-1,0.6-0.3,1.7-0.5,2.5
				C-1148.7,114-1148.6,114.8-1148.6,115.5z"/>
			<path class="st0" d="M-1252.5,116.8c-1,0-2-0.1-3,0c-0.7,0.1-1.9-0.7-2,0.8c-0.1,1.4,0.3,2.5,1.9,2.8c1.7,0.3,3.4,0.1,5.1-0.2
				c0.9-0.2,1.9-0.8,2.2,0.9c0.2,1.4,0.3,2.3-1.5,2.6c-2.8,0.4-5.7,0.8-8.5,0c-2.1-0.6-3.3-2.1-3.6-4.3c-0.4-2.8-0.4-5.6,0-8.3
				c0.3-2.1,1.5-3.5,3.4-4.3c2.4-0.9,4.8-0.9,7.2-0.1c1.8,0.6,2.8,1.9,3.3,3.7c0.1,0.3,0.1,0.5,0.1,0.8
				C-1246.9,116.8-1246.9,116.8-1252.5,116.8z M-1254.9,113.2c3,0,3,0,3-0.9c0.1-1.7-1-2.7-2.7-2.7c-1.8,0-2.9,1-2.9,2.6
				C-1257.3,114.4-1255.5,112.5-1254.9,113.2z"/>
			<path class="st0" d="M-1127.6,118.9c1.1-3.7,2.2-7.3,3.3-11c0.4-1.2,3.7-2.2,4.6-1.4c0.4,0.3,0.1,0.7,0,1.1
				c-2.4,7.5-4.8,15-7.3,22.4c-0.3,0.9-3.7,1.6-4.3,0.9c-0.3-0.3,0-0.6,0.1-0.9c0.4-1.3,0.9-2.5,1.1-3.8c0.2-0.9,1.5-2.3-0.8-2.5
				c-0.2,0-0.3-0.7-0.4-1c-1.6-5-3.1-10-4.8-14.9c-0.4-1.2-0.2-1.4,1-1.4c3,0,3-0.1,3.9,2.9c1,3.2,1.9,6.4,2.9,9.6
				C-1127.9,118.9-1127.8,118.9-1127.6,118.9z"/>
			<path class="st0" d="M-1188.3,116.8c-1.3,0-2.3-0.1-3.3,0c-0.7,0.1-1.8-0.6-1.9,0.7c-0.1,1.3,0.2,2.6,1.8,2.9
				c1.8,0.3,3.7,0.2,5.5-0.3c1.2-0.3,1.7-0.1,2,1.2c0.2,1.2,0.2,2-1.3,2.3c-2.4,0.5-4.9,0.7-7.3,0.4c-3.1-0.4-5-2.3-5.2-5.3
				c-0.2-2.3-0.2-4.7,0-7c0.4-4.3,4.3-6.5,9.3-5.5c2.4,0.5,4.1,1.7,4.7,4.2c0.4,1.8,0.7,3.9,0.1,5.5
				C-1184.6,118.1-1187,116.1-1188.3,116.8z M-1190.9,113.2c3,0,3,0,3-0.9c0.1-1.7-0.9-2.7-2.7-2.6c-1.8,0-3,1-2.9,2.6
				C-1193.4,114.4-1191.6,112.6-1190.9,113.2z"/>
			<path class="st0" d="M-1213.8,115.2c0,2.3,0,4.5,0,6.8c0,0.6,0.4,1.6-0.5,1.7c-1,0.2-2.4,0.6-2.9-0.4c-0.6-1.1-1.1-0.7-1.8-0.5
				c-1.7,0.7-3.5,1.1-5.4,1.2c-2.6,0.1-4.2-1.1-4.3-3.6c-0.2-4.4-0.1-8.8-0.1-13.1c0-0.7,0.2-0.9,0.9-1c3.4-0.4,3.6-0.3,3.6,3
				c0,2.8,0,5.6,0,8.4c0,2.1,0.5,2.4,2.6,1.9c0.3-0.1,0.5-0.1,0.8-0.2c1.9-0.4,2.9-1.2,2.7-3.5c-0.3-2.6,0-5.3-0.1-7.9
				c-0.1-1.5,0.4-1.9,1.8-1.7c0.5,0.1,1.1,0.1,1.6,0c1-0.1,1.2,0.4,1.2,1.3C-1213.8,110.2-1213.8,112.7-1213.8,115.2z"/>
			<path class="st0" d="M-1272.3,124.2c-1.1-0.2-2.3-0.4-3.5-0.5c-1.9-0.1-2.2-1-1.7-2.7c0.3-1,0.7-1.1,1.5-0.9
				c1.4,0.4,2.9,0.4,4.3,0.4c0.8,0,1.8,0,1.9-1.2c0.2-1.2-0.3-1.9-1.4-2.2c-1.1-0.3-2.3-0.6-3.4-1c-2.6-0.9-3.3-2.2-3.1-5.5
				c0.2-2.5,1.2-3.6,3.7-4.2c2.4-0.6,4.9-0.3,7.3,0.1c1.6,0.2,0.9,1.4,0.8,2.1c0,0.8,0,1.6-1.3,1.4c-1.4-0.2-2.8-0.3-4.1-0.4
				c-0.9,0-1.8,0.2-1.9,1.3c-0.2,1.1,0.4,1.7,1.5,2c1.2,0.3,2.3,0.6,3.4,1c2.9,1,3.4,2.2,3,6.2c-0.2,2.2-1.6,3.5-4.1,3.9
				C-1270.4,124.1-1271.3,124.1-1272.3,124.2z"/>
			<path class="st0" d="M-1244.4,115.1c0-0.7,0-1.5,0-2.2c0.1-4.8,2-6.7,6.8-6.9c1,0,2,0.1,3,0.1c1.8,0.1,2.5,0.7,2,2.7
				c-0.3,1.2-0.7,1.2-1.7,1.2c-5.4-0.5-5.6-0.3-5.6,5.2c0,0.2,0,0.4,0,0.6c0,4.3,1,5.2,5.2,4.4c2.3-0.5,1.8,1,2.2,2.1
				c0.5,1.7-0.8,1.5-1.7,1.6c-1.4,0.2-2.9,0.3-4.4,0.1c-4-0.4-5.6-2-5.8-5.9C-1244.4,117.1-1244.3,116.1-1244.4,115.1L-1244.4,115.1
				z"/>
			<path class="st0" d="M-1209.5,115.1c0-2.5,0-4.9,0-7.4c0-0.6-0.2-1.4,0.7-1.3c1.1,0.1,2.6-0.8,3.1,0.6c0.4,1.1,0.7,1.1,1.5,0.5
				c0.2-0.1,0.5-0.3,0.7-0.4c2.9-1.5,3.2-1.3,3.2,2c0,0.6-0.1,1-0.7,1.2c-0.3,0.1-0.6,0.3-0.9,0.4c-2.4,0.8-3.3,2.3-3,4.9
				c0.2,2.2,0,4.4,0.1,6.5c0,1.1-0.3,1.6-1.5,1.5c-0.6-0.1-1.2-0.1-1.8,0c-1.1,0.1-1.4-0.4-1.3-1.4
				C-1209.5,120-1209.5,117.5-1209.5,115.1z"/>
		</g>
	</g>
	<g>
		<path class="st0" d="M-1229.2,75.2c-4.1,0-8.2,0-12.4,0c-0.5,0-0.6,0.1-0.6,0.6c0.1,1.6-0.1,3.1,0.2,4.6c0.7,3.7,3.2,5.9,6.8,6.8
			c4.8,1.1,9.3,0,13.4-2.6c0.6-0.4,1.2-0.8,1.7-1.3s1-0.4,1.5,0.2c0.7,1,1.5,1.9,2.2,2.9c0.5,0.5,0.5,0.9-0.1,1.4
			c-4.1,3.4-8.8,5.3-14.1,5.6c-3.4,0.2-6.7-0.3-9.8-1.6c-5.4-2.6-8.2-6.9-8.3-12.8c-0.1-4.4-0.1-8.8,0-13.1
			c0.1-7.1,4.7-12.7,11.6-14.2c4.4-1,8.7-0.8,12.8,0.9c5.2,2.3,7.9,6.3,8.6,11.9c0.4,3.4,0.1,6.7,0.2,10c0,0.6-0.3,0.9-0.9,0.9
			c-0.5,0-0.9,0-1.5,0C-1221.7,75.2-1225.5,75.2-1229.2,75.2z M-1232.1,69.8c1.5,0,2.8,0,4.3,0c1.8,0,3.6,0,5.4,0
			c0.2,0,0.5,0.1,0.5-0.3c-0.1-2,0.2-4-0.4-6c-0.6-2.4-1.9-4.3-4.2-5.5c-2.8-1.5-5.8-1.6-8.9-1c-4,0.9-6.6,4-6.9,8
			c-0.1,1.4,0,2.7,0,4.2c0,0.5,0.2,0.5,0.6,0.5C-1238.4,69.8-1235.3,69.8-1232.1,69.8z"/>
		<path class="st0" d="M-1291.3,73.2c0-5.9,0-11.9,0-17.8c0-1.2,0.1-1.4,1.2-1.7c5.6-2.2,11.2-3.2,17.3-2.7c2.6,0.2,5.2,0.8,7.6,2.1
			c3.9,2.1,6,5.5,6.9,9.8c0.4,1.6,0.5,3.2,0.5,4.7c0,7.9,0,15.8,0,23.7c0,0.9-0.2,1.1-1.1,1.1c-1.4,0-2.7,0-4.1,0
			c-1.1,0-1.3-0.1-1.3-1.2c0-7.7,0-15.4,0-23.1c0-1.6-0.2-3.3-0.6-4.8c-1.1-3.6-3.6-5.6-7.1-6.2c-2.7-0.5-5.4-0.4-8.1,0.1
			c-1.4,0.2-2.6,0.5-4,0.8c-0.5,0.1-0.6,0.4-0.6,0.8c0,10.8,0,21.6,0,32.2c0,0.2,0,0.4,0,0.6c0,0.5-0.3,0.7-0.8,0.7
			c-1.6,0-3.3,0-4.8,0c-0.5,0-0.7-0.3-0.8-0.7c0-0.2,0-0.4,0-0.6C-1291.3,85.1-1291.3,79.2-1291.3,73.2z"/>
		<path class="st0" d="M-1167.6,50.8c4.8,0,9.3,1.3,13.5,3.7c0.6,0.4,0.7,0.7,0.4,1.4c-0.6,1.1-1.4,2.3-2,3.4
			c-0.4,0.6-0.6,0.7-1.4,0.4c-3.6-1.9-7.4-2.9-11.5-2.8c-1.7,0-3.5,0.3-5,1c-2.7,1.3-3.9,4-2.9,6.6c0.5,1,1.2,1.7,2.1,2.3
			c1.7,1.1,3.7,1.6,5.6,2c2.8,0.6,5.7,1.1,8.4,2c1.2,0.4,2.3,0.8,3.3,1.5c3.8,2.2,5.4,5.7,5,10c-0.5,5.5-3.8,8.8-8.9,10.2
			c-8.1,2.4-15.7,0.9-22.7-3.9c-0.5-0.4-0.6-0.7-0.3-1.4c0.7-1.3,1.5-2.5,2.2-3.7c0.4-0.5,0.7-0.5,1.4-0.1c1.7,1.3,3.6,2.4,5.6,3.1
			c3.7,1.4,7.4,1.7,11.2,0.6c0.8-0.3,1.6-0.6,2.4-1.1c1.7-1.2,2.6-2.8,2.5-4.9c-0.1-2.1-1.4-3.3-3.2-4.2c-1.8-0.9-3.8-1.3-5.8-1.6
			c-3-0.6-5.9-1.3-8.8-2.6c-2.3-1.1-4.2-2.6-5.6-4.7c-2.2-3.7-2.2-10.4,3.6-14.1c2.6-1.6,5.5-2.4,8.4-2.6
			C-1169.2,50.8-1168.5,50.8-1167.6,50.8z"/>
		<path class="st0" d="M-1206.8,61.6c0-6.3,0-12.5,0-18.8c0-0.9,0.2-1.2,1.1-1.2c1.2,0,2.5,0,3.7,0c0.7,0,1.1,0.3,1.1,1.1
			c0.2,2.9,0.4,5.8,0.5,8.8c0,0.5,0.2,0.5,0.6,0.5c3.1,0,6.2,0,9.3,0c1,0,1.2,0.2,1.2,1.2c0,1.2,0,2.3,0,3.5c0,0.9-0.3,1.1-1.1,1.1
			c-3.1,0-6.3,0-9.4,0c-0.5,0-0.5,0.1-0.5,0.6c0,6.9,0,13.7,0,20.6c0,1,0.1,2,0.4,3c0.8,3.2,3.4,5.1,6.7,5.2c1.4,0,2.7-0.1,4.1-0.1
			c0.8,0,1.1,0.2,1.1,1.1c0,1.3,0,2.6,0,3.8c0,0.7-0.2,1-0.9,1.1c-2.8,0.2-5.7,0.4-8.5-0.4c-4.9-1.3-7.9-4.5-8.9-9.4
			c-0.3-1.3-0.4-2.6-0.4-3.9C-1206.8,73.5-1206.8,67.6-1206.8,61.6z"/>
		<path class="st0" d="M-1140.3,47.6c0-5.1,4-9.2,9.1-9.2c5.1,0,9.2,4,9.2,9.1s-4.1,9.2-9.2,9.2
			C-1136.3,56.7-1140.3,52.6-1140.3,47.6z"/>
		<path class="st0" d="M-1111.7,58.8c4.5,0,8,3.7,8,8.1s-3.7,7.9-8.1,7.9c-4.6,0-8-3.7-8-8.2C-1119.9,62.4-1116.2,58.8-1111.7,58.8z
			"/>
		<path class="st0" d="M-1138.1,86.2c0-3.8,3.2-6.9,7-6.9c3.8,0,6.9,3.1,6.9,7c0,3.8-3.2,6.9-7,6.9
			C-1135.1,93.2-1138.2,90-1138.1,86.2z"/>
		<path class="st0" d="M-1111.8,41.6c3.2,0,5.8,2.6,5.8,5.8c0,3.3-2.6,5.8-5.8,5.8c-3.2,0-5.8-2.6-5.9-5.8
			C-1117.8,44.4-1115,41.6-1111.8,41.6z"/>
	</g>
</g>
</svg>
