<?xml version="1.0" encoding="utf-8"?>
<!-- Generator: Adobe Illustrator 24.0.0, SVG Export Plug-In . SVG Version: 6.00 Build 0)  -->
<svg version="1.1" id="Layer_1" xmlns="http://www.w3.org/2000/svg" xmlns:xlink="http://www.w3.org/1999/xlink" x="0px" y="0px"
	 viewBox="0 0 265 170" style="enable-background:new 0 0 265 170;" xml:space="preserve">
<style type="text/css">
	.st0{fill-rule:evenodd;clip-rule:evenodd;fill:#009EE3;}
	.st1{fill-rule:evenodd;clip-rule:evenodd;fill:#113984;}
	.st2{fill-rule:evenodd;clip-rule:evenodd;fill:#172C70;}
</style>
<g>
	<path class="st0" d="M47.3,71.7h14.1c7.6,0,10.4,3.8,10,9.5c-0.7,9.3-6.3,14.4-13.8,14.4h-3.8c-1,0-1.7,0.7-2,2.5l-1.6,10.7
		c-0.1,0.7-0.5,1.1-1,1.1h-8.9c-0.8,0-1.1-0.6-0.9-2l5.4-34.2C45.2,72.4,45.8,71.7,47.3,71.7z"/>
	<path class="st1" d="M108.6,71.1c4.8,0,9.1,2.6,8.5,9c-0.7,7.6-4.8,11.9-11.3,11.9h-5.6c-0.8,0-1.2,0.7-1.4,2l-1.1,6.9
		c-0.2,1-0.7,1.6-1.5,1.6h-5.3c-0.8,0-1.1-0.5-0.9-1.7L94.2,73c0.2-1.4,0.7-1.9,1.7-1.9L108.6,71.1L108.6,71.1z M100.1,86h4.3
		c2.7-0.1,4.5-2,4.6-5.3c0.1-2.1-1.3-3.5-3.5-3.5h-4L100.1,86L100.1,86z M131.4,100.4c0.5-0.4,1-0.7,0.9-0.1l-0.2,1.3
		c-0.1,0.7,0.2,1,0.8,1h4.7c0.8,0,1.2-0.3,1.4-1.5l2.9-18c0.1-0.9-0.1-1.4-0.8-1.4H136c-0.5,0-0.7,0.3-0.8,1l-0.2,1.1
		c-0.1,0.6-0.4,0.7-0.6,0.1c-0.9-2.1-3.1-3-6.2-2.9c-7.2,0.1-12,5.6-12.6,12.6c-0.4,5.4,3.5,9.7,8.6,9.7
		C128,103.2,129.6,102.1,131.4,100.4L131.4,100.4L131.4,100.4z M127.6,97.6c-3.1,0-5.3-2.5-4.8-5.5c0.4-3,3.3-5.5,6.4-5.5
		c3.1,0,5.3,2.5,4.8,5.5C133.6,95.1,130.6,97.6,127.6,97.6L127.6,97.6z M150.9,81.6h-4.7c-1,0-1.4,0.7-1.1,1.6l5.9,17.2l-5.8,8.2
		c-0.5,0.7-0.1,1.3,0.6,1.3h5.3c0.6,0.1,1.3-0.2,1.6-0.8l18.1-25.9c0.6-0.8,0.3-1.6-0.6-1.6h-5c-0.9,0-1.2,0.3-1.7,1.1l-7.5,10.9
		l-3.5-11C152.4,82,151.9,81.6,150.9,81.6L150.9,81.6z"/>
	<path class="st0" d="M189.7,71.1c4.8,0,9.1,2.6,8.5,9c-0.7,7.6-4.8,11.9-11.3,11.9h-5.6c-0.8,0-1.2,0.7-1.4,2l-1.1,6.9
		c-0.2,1-0.7,1.6-1.5,1.6h-5.3c-0.8,0-1.1-0.5-0.9-1.7l4.3-27.8c0.2-1.4,0.7-1.9,1.7-1.9L189.7,71.1L189.7,71.1z M181.1,86h4.3
		c2.7-0.1,4.5-2,4.6-5.3c0.1-2.1-1.3-3.5-3.5-3.5h-4L181.1,86L181.1,86z M212.4,100.4c0.5-0.4,1-0.7,0.9-0.1l-0.2,1.3
		c-0.1,0.7,0.2,1,0.8,1h4.7c0.8,0,1.2-0.3,1.4-1.5l2.9-18c0.1-0.9-0.1-1.4-0.8-1.4H217c-0.5,0-0.7,0.3-0.8,1l-0.2,1.1
		c-0.1,0.6-0.4,0.7-0.6,0.1c-0.9-2.1-3.1-3-6.2-2.9c-7.2,0.1-12,5.6-12.6,12.6c-0.4,5.4,3.5,9.7,8.6,9.7
		C208.9,103.2,210.7,102.1,212.4,100.4L212.4,100.4L212.4,100.4z M208.6,97.6c-3.1,0-5.3-2.5-4.8-5.5c0.4-3,3.3-5.5,6.4-5.5
		c3.1,0,5.3,2.5,4.8,5.5C214.6,95.1,211.7,97.6,208.6,97.6L208.6,97.6z M230.2,102.6h-5.4c-0.4,0-0.6-0.3-0.7-0.6v-0.1l4.7-30
		c0.1-0.4,0.5-0.7,0.9-0.7h5.4c0.4,0,0.6,0.3,0.7,0.6v0.1l-4.7,30C230.9,102.3,230.6,102.6,230.2,102.6L230.2,102.6z"/>
	<path class="st1" d="M38.6,60h14.1c4,0,8.7,0.1,11.8,2.9c2.1,1.9,3.2,4.8,3,8c-0.9,10.8-7.3,16.8-16,16.8h-7c-1.2,0-2,0.8-2.3,2.9
		L40.2,103c-0.1,0.8-0.5,1.3-1.1,1.3h-8.6c-1,0-1.3-0.7-1.1-2.3l6.3-39.7C36,60.7,36.8,60,38.6,60z"/>
	<path class="st2" d="M42.5,89.4L45,73.8c0.2-1.4,1-2,2.5-2h14.1c2.3,0,4.2,0.4,5.7,1c-1.4,9.6-7.6,14.9-15.7,14.9h-6.9
		C43.6,87.7,42.8,88.2,42.5,89.4z"/>
</g>
</svg>
