<?xml version="1.0" encoding="utf-8"?>
<!-- Generator: Adobe Illustrator 24.0.0, SVG Export Plug-In . SVG Version: 6.00 Build 0)  -->
<svg version="1.1" id="Layer_1" xmlns="http://www.w3.org/2000/svg" xmlns:xlink="http://www.w3.org/1999/xlink" x="0px" y="0px"
	 viewBox="0 0 265 170" style="enable-background:new 0 0 265 170;" xml:space="preserve">
<style type="text/css">
	.st0{fill-rule:evenodd;clip-rule:evenodd;fill:#009EE3;}
	.st1{fill-rule:evenodd;clip-rule:evenodd;fill:#113984;}
	.st2{fill-rule:evenodd;clip-rule:evenodd;fill:#172C70;}
</style>
<g id="id3" transform="matrix(1.0,0,0,1.0,798.0,0.0)">
	<g id="tpyqJ8.tif_1_">
	</g>
	<g id="RHc8AJ.tif_1_">
	</g>
	<path class="st0" d="M-673,53.8h33.3c17.9,0,24.6,9.1,23.6,22.4c-1.7,22-15,34.1-32.6,34.1h-8.9c-2.4,0-4,1.6-4.7,5.9l-3.8,25.2
		c-0.2,1.6-1.1,2.6-2.4,2.7h-20.9c-2,0-2.7-1.5-2.2-4.8l12.8-80.7C-678.2,55.3-676.5,53.8-673,53.8z"/>
	<path class="st1" d="M-693.8,26h33.4c9.4,0,20.5,0.3,28,6.9c5,4.4,7.6,11.4,7,18.9c-2,25.5-17.3,39.8-37.7,39.8h-16.5
		c-2.8,0-4.7,1.9-5.4,6.9l-4.6,29.3c-0.3,1.9-1.1,3-2.6,3.1h-20.6c-2.3,0-3.1-1.7-2.5-5.5l14.8-93.8C-700,27.8-697.8,26-693.8,26z"
		/>
	<path class="st2" d="M-684.7,95.4l5.8-36.9c0.5-3.2,2.3-4.8,5.8-4.8h33.3c5.5,0,10,0.9,13.5,2.5c-3.3,22.7-18,35.3-37.2,35.3h-16.4
		C-682,91.5-683.7,92.6-684.7,95.4z"/>
</g>
</svg>
