<?xml version="1.0" encoding="utf-8"?>
<!-- Generator: Adobe Illustrator 24.0.0, SVG Export Plug-In . SVG Version: 6.00 Build 0)  -->
<svg version="1.1" id="Layer_1" xmlns="http://www.w3.org/2000/svg" xmlns:xlink="http://www.w3.org/1999/xlink" x="0px" y="0px"
	 viewBox="0 0 265 170" style="enable-background:new 0 0 265 170;" xml:space="preserve">
<style type="text/css">
	.st0{fill:#1A2362;}
</style>
<g id="id6" transform="matrix(1.0,0,0,1.0,1596.0,0.0)">
	<g id="tpyqJ8.tif_4_">
	</g>
	<g id="RHc8AJ.tif_4_">
	</g>
	<g id="MRG7VI.tif_3_">
	</g>
	<g id="ddSF7z.tif_3_">
	</g>
	<g id="_x35_kkBik.tif">
		<g>
			<path class="st0" d="M-1563.6,43.9c2,0,4-0.5,6-0.9c1.1-0.2,1.4,0.1,1.5,1.1c1.5,8,3.1,16,4.6,23.9c0.1,0.3,0,0.7,0.3,0.9
				c0.4-0.3,0.5-0.8,0.7-1.2c4-7.9,7.9-15.7,11.8-23.6c0.4-0.7,0.8-1.1,1.6-1c1.9,0.1,3.8,0,5.7,0c0.2,0.5-0.1,0.8-0.3,1.1
				c-5.8,10.9-11.5,21.9-17.3,32.8c-0.4,0.8-0.9,1.1-1.7,1c-1.4-0.1-2.8-0.1-4.2,0c-0.9,0-1.3-0.1-1.5-1.1
				c-2.2-10.2-4.5-20.4-6.8-30.6c-0.1-0.4,0-0.9-0.5-1.2C-1563.6,44.8-1563.6,44.4-1563.6,43.9z"/>
			<path class="st0" d="M-1407.7,41.7c-1.8,11.7-3.6,23.3-5.3,35c-0.2,1.1-0.5,1.6-1.6,1.4c-0.1,0-0.2,0-0.3,0
				c-1.1,0-2.4,0.3-3.2-0.1c-1-0.5,0-1.9-0.5-2.9c-0.8,0.6-1.6,1.3-2.5,1.9c-2.2,1.4-4.5,2-7.1,1.5s-4.4-2.1-5.2-4.6
				c-1.8-5.1,0.4-13.6,4.4-17.2c3.6-3.3,7.8-3.7,12.3-2.6c1,0.3,1.2,0,1.3-0.9c0.5-3.2,1-6.3,1.4-9.5c0.1-0.9,0.5-1,1.3-1.2
				c1.2-0.2,2.5-0.1,3.6-0.7C-1408.7,41.7-1408.2,41.7-1407.7,41.7z M-1427.8,68.2c0.1,0.4,0.1,1,0.2,1.5c0.5,2.6,2.3,3.8,4.9,3.2
				c1.6-0.4,2.8-1.3,4-2.4c0.5-0.5,0.8-1,0.9-1.7c0.4-2.9,0.9-5.8,1.4-8.7c0.1-0.4,0.1-0.7-0.3-1c-2.5-1.5-6.6-0.9-8.4,1.3
				C-1427.2,62.7-1427.7,65.3-1427.8,68.2z"/>
			<path class="st0" d="M-1363.3,59.9c-1.9,3.1-3.4,6.5-5.1,9.7c-1.7,3.2-3.3,6.4-4.9,9.5c-0.7,1.4-1.5,2.7-2.7,3.8
				c-1.8,1.7-3.9,2.2-6.3,2c-0.6,0-0.9-0.3-0.8-1c0-0.1,0-0.3,0-0.4c0-0.8-0.3-1.8,0-2.3c0.4-0.6,1.4,0,2.2-0.1
				c2.2-0.1,3.9-2.2,3.4-4.3c-1.1-5.3-2.3-10.7-3.4-16c-0.2-0.8,0.1-1,0.8-1.1c1-0.1,1.9-0.2,2.9-0.4c0.8-0.1,1.2,0.1,1.3,1
				c0.5,3.5,1.2,7.1,1.8,10.6c0.1,0.3,0.2,0.6,0.3,1.2c1.6-3.3,3.3-6.4,4.5-9.6c0.9-2.4,2.2-3.5,4.8-3c0.4,0.1,0.8-0.1,1.2-0.1
				C-1363.3,59.6-1363.3,59.7-1363.3,59.9z"/>
			<path class="st0" d="M-1404.9,87.7c1.3,0,2.5,0,3.8,0c0.7,0,1,0.1,1.2,0.9c2.6,12.6,5.3,25.3,7.9,37.9c0.1,0.7,0,0.9-0.7,0.9
				c-2.7,0-5.3,0-8,0c-0.7,0-0.9-0.3-1-0.9c-0.3-1.4-0.6-2.9-0.9-4.3c-0.1-0.6-0.4-0.8-1-0.8c-3.8,0-7.7,0-11.5,0
				c-0.6,0-0.8,0.2-1,0.7c-0.5,1.5-1.1,2.9-1.6,4.4c-0.2,0.7-0.6,0.9-1.3,0.9c-2.9,0-5.7-0.1-8.6,0c-1.1,0-1.3-0.2-0.9-1.2
				c3.1-7.3,6.2-14.6,9.2-22c1.8-4.3,3.6-8.6,5.4-12.9c1.1-2.6,2.5-3.6,5.3-3.6C-1407.2,87.7-1406.2,87.7-1404.9,87.7z
				 M-1407.4,98.6c-1.8,5-3.6,9.8-5.4,14.6c2.7,0,5.1,0,7.6,0c0.7,0,0.7-0.3,0.6-0.8c-0.3-1.3-0.5-2.5-0.8-3.8
				C-1406.1,105.4-1406.8,102.2-1407.4,98.6z"/>
			<path class="st0" d="M-1427.9,97.3c-2.9-1.4-5.8-2.1-8.9-2c-1.3,0-2.6,0.2-3.8,0.9c-2.2,1.2-2.3,3.2-0.4,4.8
				c1.4,1.1,3,1.9,4.6,2.7c2.1,1,4,2.2,5.7,3.9c4.5,4.6,3,12.2-1.2,16c-3.1,2.8-6.9,4-11,4.3c-4.6,0.4-9.1-0.1-13.4-1.6
				c-0.5-0.2-1-0.3-0.9-1.1c0.5-2.7,0.9-5.4,1.3-8.2c2.1,0.9,4.1,1.8,6.2,2.2c2.3,0.4,4.7,0.6,7,0.2c0.6-0.1,1.1-0.3,1.7-0.6
				c2.6-1.3,2.9-3.8,0.7-5.6c-1.1-0.9-2.4-1.6-3.7-2.2c-1.8-0.9-3.6-1.9-5.1-3.2c-4.4-3.6-5.3-9.1-2.1-13.9c2.2-3.3,5.4-5.1,9.1-6.1
				c4.9-1.3,9.8-1.1,14.6,0.5c0.5,0.1,1.1,0.1,1,1C-1427.1,91.9-1427.4,94.5-1427.9,97.3z"/>
			<path class="st0" d="M-1493.9,108.6c0.7,1.8,0.7,3.8,1.4,5.9c1.3-3.4,2.5-6.7,3.7-9.9c2-5.3,3.9-10.6,5.9-15.9
				c0.3-0.8,0.6-1.1,1.5-1.1c3.2,0.1,6.4,0,9.6,0c0.2,0.4-0.1,0.7-0.2,1c-5.1,12.5-10.2,25.1-15.3,37.6c-0.3,0.8-0.7,1.2-1.6,1.1
				c-2.9-0.1-5.8-0.1-8.7,0c-0.8,0-1.1-0.2-1.3-1c-2.8-10.5-5.5-21.1-8.3-31.6c-0.2-0.6-0.3-1.2-0.5-1.8c1.3,0.3,2.3,1.2,3.3,2
				C-1499.8,98.6-1496.2,103.2-1493.9,108.6z"/>
			<path class="st0" d="M-1462.4,87.7c1.3,0,2.6,0,3.9,0c0.9,0,1.3,0.1,1.1,1.2c-1.4,8.1-2.6,16.2-4,24.3c-0.7,4.4-1.5,8.8-2.1,13.2
				c-0.1,0.8-0.4,1-1.2,1c-2.8,0-5.6,0-8.3,0c-0.7,0-1-0.1-0.8-0.9c1.5-9,2.9-17.9,4.4-26.9c0.6-3.4,1.1-6.9,1.7-10.3
				c0.2-1.1,0.4-1.8,1.7-1.6C-1464.9,87.8-1463.7,87.7-1462.4,87.7z"/>
			<path class="st0" d="M-1437.6,70.7c0,1-0.1,1.7,0,2.5c0.4,1.9-0.6,2.8-2.3,3.6c-3.4,1.5-6.8,2.1-10.5,1.6
				c-4.3-0.6-6.9-3.2-7.6-7.5c-1-6.3,2-13.3,7.1-16.1c2.7-1.5,5.6-1.9,8.5-1.3c3.9,0.8,6.2,3.9,6.4,8.4c0.1,1.6,0.3,3.5-0.6,4.7
				c-0.9,1.3-2.9,0.4-4.3,0.5c-3.4,0.1-6.7,0.1-10.1,0c-0.9,0-1.2,0.2-1.2,1.1c0,4,2.5,6.1,6.6,5.6c2.3-0.3,4.4-1.1,6.4-2.2
				C-1438.6,71.3-1438.2,71.1-1437.6,70.7z M-1451.2,63.2c3,0,5.9,0,8.8,0c0.3,0,0.6,0.1,0.8-0.4c0.3-1.3-0.5-3.9-1.6-4.7
				c-1.5-1-3-0.9-4.5-0.1C-1449.7,59.1-1450.6,61-1451.2,63.2z"/>
			<path class="st0" d="M-1516.8,70.7c0,1.2-0.1,2.2,0,3.2c0.2,1.4-0.5,1.9-1.6,2.5c-3.4,1.7-7.1,2.4-10.9,2
				c-4.5-0.5-7.4-3.3-7.9-7.9c-0.5-5.3,0.8-10.1,4.7-14c3.1-3,6.8-3.9,10.9-3.1c3.8,0.7,6.1,3.7,6.4,7.9c0.1,1.6,0,3.1-0.2,4.7
				c-0.1,0.8-0.5,1.1-1.3,1.1c-4.4,0-8.8,0-13.1,0c-1.5,0-1.6,0.1-1.4,1.6c0.3,3.8,2.7,5.6,6.7,5.1
				C-1521.7,73.4-1519.2,72.2-1516.8,70.7z M-1530.2,63.1c0.2,0,0.3,0.1,0.4,0.1c2.5,0,5,0,7.6,0c1.6,0,1.7,0,1.5-1.6
				c-0.1-1.7-0.6-3.2-2.3-3.9c-1.8-0.7-3.4-0.2-4.8,1.1C-1529.1,59.9-1529.8,61.3-1530.2,63.1z"/>
			<path class="st0" d="M-1480.6,58.6c-0.5,0-1,0-1.5,0c-2,0-2,0-1.7-2v-0.1c0.2-0.9,0-2.1,0.6-2.7c0.5-0.6,1.7-0.2,2.6-0.2
				c0.7,0,0.8-0.4,0.9-0.9c0.2-1.2,0.3-2.3,0.5-3.5c0.7-4.1,3.2-6.5,7.3-7c1.2-0.2,2.5,0,3.8-0.1c0.6,0,1,0.2,0.9,0.9
				c0,0.2,0,0.4,0,0.6c0,1.1,0.4,2.4-0.1,3.2s-1.9,0.1-2.9,0.2c-1.6,0.2-2.6,1-3,2.6c-0.3,1.2-0.9,2.7-0.4,3.5
				c0.5,0.9,2.1,0.3,3.3,0.3c0.9,0,1.2,0.2,1.1,1.1c-0.1,1.3,0.4,2.9-0.2,3.7c-0.7,0.8-2.4,0.3-3.6,0.2c-1.3-0.1-1.7,0.4-1.8,1.6
				c-0.8,5.6-1.7,11.2-2.5,16.9c-0.1,0.7-0.4,1-1.1,1c-1.4-0.1-2.8,0-4.2,0c-0.8,0-0.9-0.2-0.8-0.9c0.9-5.9,1.8-11.8,2.7-17.7
				C-1480.6,59.1-1480.6,58.9-1480.6,58.6z"/>
			<path class="st0" d="M-1394.9,61.2c0.9-0.5,1.7-1,2.5-1.4c4.2-1.9,8.1,0.3,8.5,4.9c0.3,3-0.3,5.8-1.7,8.4c-2,3.7-5.4,5.2-9.4,5.2
				c-2.1,0-4.1-0.3-6.1-0.9c-0.8-0.2-1-0.6-0.9-1.4c1.2-7.3,2.3-14.6,3.4-21.9c0.5-2.8,0.5-2.8,3.4-3.3c1.7-0.3,1.7-0.3,1.5,1.4
				c-0.4,2.5-0.8,5.1-1.2,7.6C-1394.9,60.2-1395.2,60.7-1394.9,61.2z M-1388.7,67c0-1.4-0.2-2.8-1.7-3.5c-1.9-0.9-5.3,1.1-5.6,3.1
				c-0.3,2.1-0.6,4.2-1,6.4c-0.2,0.8,0.1,1.1,0.9,1.3c3.4,0.8,5.9-0.7,6.9-4C-1388.8,69.2-1388.7,68.1-1388.7,67z"/>
			<path class="st0" d="M-1504.6,58.3c1.9-2.3,3.8-4.1,6.5-4.9c2.1-0.5,2.1-0.5,2.1,1.6c0,1.3,0.4,2.7-0.1,3.7
				c-0.5,1.2-2.2,0.6-3.3,1.2c-1,0.5-2,0.9-2.9,1.5c-1.9,1.2-3.2,2.7-3.4,5.2c-0.3,3.5-1.1,7-1.6,10.5c-0.1,0.8-0.4,1-1.1,1
				c-1.4-0.1-2.8-0.1-4.2,0c-0.9,0-1-0.3-0.9-1.1c0.9-5.6,1.8-11.3,2.6-17c0.3-1.8,0.6-3.6,0.8-5.4c0.1-0.9,0.5-1.1,1.3-1.1
				c0.9,0.1,1.9,0.1,2.8,0c1.2-0.2,1.4,0.4,1.3,1.4C-1504.7,56-1504.6,57-1504.6,58.3z"/>
			<path class="st0" d="M-1489.2,53.6c3.1,0,3.1,0,2.6,2.9c-1.1,6.9-2.2,13.7-3.2,20.6c-0.1,0.8-0.4,1-1.1,1c-1.3,0-2.7-0.1-4,0
				c-0.9,0-1.1-0.2-1-1.1c0.6-4,1.2-8,1.9-12c0.5-3.5,1.1-6.9,1.6-10.4c0.1-0.8,0.4-1.1,1.2-1C-1490.7,53.6-1489.9,53.6-1489.2,53.6
				z"/>
			<path class="st0" d="M-1466.6,78c-0.6,0-1.2-0.1-1.8,0c-1,0.1-1.2-0.2-1.1-1.2c1.2-7.4,2.3-14.8,3.4-22.2c0.1-0.8,0.4-1,1.2-1
				c1.3,0.1,2.6,0.1,3.9,0c0.9,0,1.2,0.2,1,1.1c-0.7,4.4-1.4,8.9-2.1,13.4c-0.5,3-1,5.9-1.4,8.9c-0.1,0.9-0.4,1.2-1.3,1.1
				C-1465.2,77.9-1465.8,78-1466.6,78z"/>
			<path class="st0" d="M-1493.9,108.6c-2.4-5.4-5.8-10-10.6-13.6c-1-0.8-2-1.7-3.3-2c-0.3-0.6-1-0.8-1.5-1.1
				c-2.6-1.4-5.3-2.5-8.2-3.3c-0.4-0.1-1,0-0.9-0.6c0.1-0.7,0.7-0.4,1.1-0.4c5.1,0,10.2,0,15.3,0c3,0,4.4,1.1,5,4.1
				c1.1,5.2,2.1,10.4,3.1,15.6C-1493.9,107.7-1493.9,108.2-1493.9,108.6z"/>
			<path class="st0" d="M-1487.6,42.6c1.9,0,3.1,1.2,3.1,3c0,2.2-1.9,4-4.2,4c-1.8,0-3.1-1.2-3.2-2.9
				C-1491.8,44.5-1489.8,42.6-1487.6,42.6z"/>
			<path class="st0" d="M-1461.1,42.6c1.9,0,3.2,1.2,3.2,3c0,2.2-1.9,4-4.2,4c-1.9,0-3.1-1.2-3.2-2.9
				C-1465.2,44.6-1463.3,42.7-1461.1,42.6z"/>
		</g>
	</g>
</g>
</svg>
