<?xml version="1.0" encoding="utf-8"?>
<!-- Generator: Adobe Illustrator 24.0.0, SVG Export Plug-In . SVG Version: 6.00 Build 0)  -->
<svg version="1.1" id="Layer_1" xmlns="http://www.w3.org/2000/svg" xmlns:xlink="http://www.w3.org/1999/xlink" x="0px" y="0px"
	 viewBox="0 0 265 170" style="enable-background:new 0 0 265 170;" xml:space="preserve">
<style type="text/css">
	.st0{fill:#00AFF2;}
</style>
<g id="id7" transform="matrix(1.0,0,0,1.0,1862.0,0.0)">
	<g id="tpyqJ8.tif_3_">
	</g>
	<g id="RHc8AJ.tif_3_">
	</g>
	<g id="Gj1Yqm.tif">
		<g>
			<path class="st0" d="M-1730,65c3.4,0,6.8-0.1,10.2,0c2.6,0.1,5.1,0.8,7.4,2c4.2,2.2,6.2,8.1,4.1,12.5c-1.4,3-1,3.1,0.9,5.1
				c5.7,6.1,4.6,16.9-5.9,19.9c-2.6,0.7-5.4,0.9-8.2,1.3c-1.2,0.2-2.2-0.4-2.8-1.4c-0.8-1.3-1.4-2.7-2-4.1c-0.4-0.9,0.2-1.6,1.3-1.7
				c1.4-0.1,2.9-0.1,4.3-0.1c2-0.1,3.9-0.1,5.8-0.9c1.8-0.8,3-2,3.2-4.1c0.1-2.3-1-3.8-2.9-4.8c-1.4-0.8-3-1.1-4.6-1.1
				c-3.2-0.1-6.3-0.1-9.5-0.1c-2.5,0-4.2-0.9-5.1-3.3c-0.3-0.7-0.6-1.3-0.8-2c-0.3-0.9,0.1-1.6,1.1-1.8c0.3,0,0.5,0,0.8,0
				c4.2-0.1,8.3-0.1,12.5-0.2c1.2,0,2.4-0.4,3.4-0.9c2.4-1.2,2.5-4.4,0.3-5.9c-1.4-1-3-1.3-4.7-1.3c-4.9,0-9.9,0-14.8,0
				c-2.2,0-3.7-0.9-4.6-2.8c-0.4-0.8-0.8-1.6-1.1-2.4c-0.4-1.2,0.1-1.9,1.4-1.9c2.6,0,5.2,0,7.8,0c0.9,0,1.9,0,2.8,0
				C-1730,64.9-1730,65-1730,65z"/>
			<path class="st0" d="M-1801.1,105.5c-2.9,0.1-4.8-1.2-6-3.8c-4.5-9.9-9.1-19.9-13.7-29.8c-0.7-1.4-1.3-2.9-2-4.4
				c-0.8-1.8-0.1-2.9,1.9-3c3.8-0.2,5.6,0.9,7.2,4.4c3.6,8,7.3,15.9,10.9,23.9c0.3,0.7,0.7,1.2,1.5,1.2c0.8,0,1.2-0.5,1.5-1.2
				c3.7-8.1,7.5-16.1,11.1-24.2c1.7-3.7,4.2-4.6,7.9-4.1c1.1,0.2,1.7,1.1,1.3,2.1c-0.6,1.6-1.3,3.2-2.1,4.8c-4.6,10-9.2,20-13.8,30
				C-1796.3,104-1798.1,105.6-1801.1,105.5z"/>
			<path class="st0" d="M-1734.5,105.4c-3,0.2-4.9-1.3-6.1-3.9c-3.7-8.1-7.4-16.2-11.1-24.2c-0.1-0.2-0.2-0.4-0.3-0.6
				c-0.3-0.6-0.7-1.1-1.5-1.1s-1.2,0.5-1.5,1.2c-3.7,8.1-7.5,16.2-11.2,24.4c-0.4,0.8-0.8,1.6-1.4,2.3c-1.7,2.2-4.6,2.2-6.8,1.8
				c-0.9-0.2-1.3-1-1.1-1.9c0.4-1.2,0.8-2.3,1.4-3.4c4.9-10.6,9.7-21.2,14.6-31.8c1.2-2.6,3.3-3.7,6.1-3.6c2.7,0,4.6,1.2,5.8,3.7
				c3.6,7.9,7.2,15.8,10.8,23.6c1.5,3.3,3,6.5,4.5,9.8c0.2,0.5,0.4,0.9,0.6,1.4c0.4,1.4-0.3,2.4-1.7,2.5
				C-1733.8,105.5-1734.2,105.4-1734.5,105.4z"/>
			<path class="st0" d="M-1688.7,85.3c0-5.8,0-11.6,0-17.4c0-2.3,0.8-3.1,3.1-3.1c0.3,0,0.7,0,1,0c1.8,0.2,2.5,0.9,2.5,2.7
				c0.1,2.4,0,4.8,0,7.2c0,6.8,0,13.6,0,20.4c0,0.5,0.1,1.1,0.2,1.6c0.2,1.1,0.9,1.9,2.1,2c1.4,0.1,2.8,0.1,4.1,0.2
				c1.7,0,3.4,0,5.2,0c1.9-0.1,3.4,0.7,4.5,2.1c0.8,1,1.5,2.1,2.1,3.1c0.5,0.8,0.2,1.4-0.7,1.6c-0.2,0.1-0.5,0.1-0.7,0.1
				c-6.5,0-12.9,0-19.4,0c-0.3,0-0.7,0-1,0c-2.3,0-3.1-0.9-3.1-3.1C-1688.7,97-1688.7,91.1-1688.7,85.3L-1688.7,85.3z"/>
			<path class="st0" d="M-1660.8,85.2c0-5.5,0-11,0-16.5c0-0.5,0-1.1,0-1.6c0.1-1,0.6-1.8,1.6-2c0.9-0.2,1.9-0.3,2.9-0.2
				c1.4,0.1,2.1,1,2.2,2.6c0.1,1.3,0,2.7,0,4c0,8,0,15.9,0,23.9c0,0.4,0,0.9,0.1,1.3c0.2,1.3,0.9,2.1,2.3,2.2
				c1.6,0.1,3.2,0.1,4.9,0.1c1.5,0,3.1,0,4.6,0s2.7,0.5,3.6,1.6c1,1.2,1.8,2.5,2.7,3.7c0.5,0.7,0.1,1.4-0.7,1.5c-0.3,0.1-0.7,0-1,0
				c-6.7,0-13.4,0-20.1,0c-2.2,0-3-0.8-3-3C-1660.9,97-1660.9,91.1-1660.8,85.2C-1660.9,85.2-1660.9,85.2-1660.8,85.2z"/>
			<path class="st0" d="M-1787.1,105.5c-3,0.3-3.7-1.3-2.6-3.6c3.4-7.3,6.8-14.7,10.1-22c1.8-3.9,3.6-7.9,5.4-11.8
				c1.6-3.5,5-4,7.8-3.3c1.1,0.3,1.4,1.4,0.8,2.7c-0.8,1.8-1.6,3.6-2.4,5.4c-4.4,9.5-8.8,19-13.1,28.5
				C-1782.2,104-1784.1,105.7-1787.1,105.5z"/>
			<path class="st0" d="M-1701,85.2c0-5.6,0-11.2,0-16.8c0-0.4,0-0.8,0-1.3c0.1-1.3,0.7-2,2-2.2c0.9-0.1,1.9-0.1,2.8,0
				c1.2,0.2,1.9,1.1,1.9,2.3c0,1.5,0,3,0,4.5c0,10.1,0,20.2,0,30.4c0,0.3,0,0.7,0,1c-0.1,1.8-0.8,2.6-2.7,2.7c-0.1,0-0.2,0-0.3,0
				c-2.9,0.2-3.7-1-3.7-3.5C-1700.9,96.6-1701,90.9-1701,85.2L-1701,85.2z"/>
		</g>
	</g>
</g>
</svg>
