<?xml version="1.0" encoding="utf-8"?>
<!-- Generator: Adobe Illustrator 24.0.0, SVG Export Plug-In . SVG Version: 6.00 Build 0)  -->
<svg version="1.1" id="Layer_1" xmlns="http://www.w3.org/2000/svg" xmlns:xlink="http://www.w3.org/1999/xlink" x="0px" y="0px"
	 viewBox="0 0 265 170" style="enable-background:new 0 0 265 170;" xml:space="preserve">
<style type="text/css">
	.st0{fill:#1A2362;}
</style>
<g id="id0" transform="matrix(1.0,0,0,1.0,0.0,0.0)">
	<g>
		<path class="st0" d="M135.3,73.8c-0.1,8.6,7.6,13.4,13.5,16.2c6,2.9,8,4.8,8,7.4c-0.1,4-4.8,5.8-9.2,5.8
			c-7.8,0.1-12.3-2.1-15.8-3.8l-2.8,13.1c3.6,1.7,10.3,3.1,17.2,3.2c16.2,0,26.8-8,26.9-20.4c0.1-15.7-21.8-16.6-21.6-23.6
			c0.1-2.1,2.1-4.4,6.6-5c2.2-0.3,8.3-0.5,15.2,2.7l2.7-12.6c-3.7-1.3-8.5-2.7-14.4-2.7C146.1,54.1,135.4,62.2,135.3,73.8
			 M201.9,55.2c-3,0-5.4,1.7-6.6,4.4l-23.1,55.2h16.2l3.2-8.9h19.8l1.9,8.9h14.2l-12.4-59.6H201.9 M204.1,71.3l4.7,22.4H196
			L204.1,71.3 M115.7,55.2l-12.8,59.6h15.4l12.8-59.6H115.7 M92.9,55.2L76.8,95.8l-6.5-34.5c-0.8-3.8-3.8-6.1-7.1-6.1H37l-0.4,1.7
			C42,58.1,48.1,60,51.8,62c2.3,1.2,2.9,2.3,3.7,5.2l12.3,47.6h16.3l25-59.6H92.9"/>
	</g>
</g>
</svg>
