<?xml version="1.0" encoding="utf-8"?>
<!-- Generator: Adobe Illustrator 24.0.0, SVG Export Plug-In . SVG Version: 6.00 Build 0)  -->
<svg version="1.1" id="Layer_1" xmlns="http://www.w3.org/2000/svg" xmlns:xlink="http://www.w3.org/1999/xlink" x="0px" y="0px"
	 viewBox="0 0 265 170" style="enable-background:new 0 0 265 170;" xml:space="preserve">
<style type="text/css">
	.st0{fill:#1A2362;}
	.st1{fill:#1A1F71;}
</style>
<g id="id3" transform="matrix(1.0,0,0,1.0,798.0,0.0)">
	<g>
		<path class="st0" d="M-662.5,60.8c-0.1,8.6,7.6,13.4,13.5,16.2c6,2.9,8,4.8,8,7.4c-0.1,4-4.8,5.8-9.2,5.8
			c-7.8,0.1-12.3-2.1-15.8-3.8l-2.8,13.1c3.6,1.7,10.3,3.1,17.2,3.2c16.2,0,26.8-8,26.9-20.4c0.1-15.7-21.8-16.6-21.6-23.6
			c0.1-2.1,2.1-4.4,6.6-5c2.2-0.3,8.3-0.5,15.2,2.7l2.7-12.6c-3.7-1.3-8.5-2.7-14.4-2.7C-651.7,41.1-662.4,49.2-662.5,60.8
			 M-595.9,42.2c-3,0-5.4,1.7-6.6,4.4l-23.1,55.2h16.2l3.2-8.9h19.8l1.9,8.9h14.2l-12.4-59.6H-595.9 M-593.7,58.3l4.7,22.4h-12.8
			L-593.7,58.3 M-682.1,42.2l-12.8,59.6h15.4l12.8-59.6H-682.1 M-704.9,42.2L-721,82.8l-6.5-34.5c-0.8-3.8-3.8-6.1-7.1-6.1h-26.2
			l-0.4,1.7c5.4,1.2,11.5,3.1,15.2,5.1c2.3,1.2,2.9,2.3,3.7,5.2l12.3,47.6h16.3l25-59.6H-704.9"/>
	</g>
	<g>
		<polygon class="st1" points="-654.1,120.1 -661.1,120.1 -661.1,126.6 -653.2,126.6 -653.2,128.6 -663.5,128.6 -663.5,110.4 
			-653.7,110.4 -653.7,112.4 -661.1,112.4 -661.1,118.1 -654.1,118.1 		"/>
		<rect x="-649.6" y="109.4" class="st1" width="2.4" height="19.2"/>
		<path class="st1" d="M-632,121.4c0-2.4-1.1-6.1-5.4-6.1c-3.8,0-6.1,3.1-6.1,7s2.4,6.6,6.4,6.6c2.1,0,3.5-0.5,4.4-0.8l-0.4-1.7
			c-0.9,0.4-1.9,0.7-3.6,0.7c-2.4,0-4.4-1.3-4.5-4.5h9.2C-632,122.2-632,121.9-632,121.4z M-641.2,120.8c0.2-1.7,1.2-3.8,3.6-3.8
			c2.7,0,3.3,2.3,3.3,3.8H-641.2z"/>
		<path class="st1" d="M-619,128.1c-0.6,0.3-2,0.8-3.8,0.8c-3.9,0-6.5-2.7-6.5-6.7s2.8-7,7-7c1.4,0,2.6,0.3,3.3,0.7l-0.5,1.8
			c-0.6-0.3-1.5-0.6-2.8-0.6c-3,0-4.6,2.2-4.6,4.9c0,3,1.9,4.9,4.5,4.9c1.4,0,2.2-0.3,2.9-0.6L-619,128.1z"/>
		<path class="st1" d="M-612.4,112.4v3.1h3.4v1.8h-3.4v7.1c0,1.6,0.5,2.5,1.8,2.5c0.6,0,1-0.1,1.4-0.2l0.1,1.8
			c-0.5,0.2-1.2,0.3-2.1,0.3c-1.1,0-2-0.4-2.6-1c-0.6-0.7-0.9-1.9-0.9-3.4v-7.1h-2v-1.8h2v-2.4L-612.4,112.4z"/>
		<path class="st1" d="M-605.6,119.6c0-1.5,0-2.9-0.1-4.1h2.1l0.1,2.6h0.1c0.6-1.8,2.1-2.9,3.6-2.9c0.2,0,0.4,0,0.6,0.1v2.2
			c-0.2-0.1-0.5-0.1-0.8-0.1c-1.7,0-2.9,1.2-3.2,3c-0.1,0.3-0.1,0.7-0.1,1.1v7h-2.4L-605.6,119.6L-605.6,119.6z"/>
		<path class="st1" d="M-590.9,115.3c-3.6,0-6.5,2.6-6.5,6.9c0,4.1,2.8,6.7,6.3,6.7c3.1,0,6.5-2.1,6.5-6.9
			C-584.6,118-587.1,115.3-590.9,115.3z M-591,127.1c-2.3,0-3.9-2.2-3.9-5c0-2.5,1.2-5.1,4-5.1c2.8,0,3.9,2.8,3.9,5
			C-587,125-588.7,127.1-591,127.1z"/>
		<path class="st1" d="M-580.9,119.1c0-1.4,0-2.5-0.1-3.5h2.1l0.1,2.2h0.1c0.6-1.2,2.2-2.4,4.3-2.4c1.8,0,4.6,1.1,4.6,5.6v7.8h-2.4
			v-7.5c0-2.1-0.8-3.9-3-3.9c-1.5,0-2.8,1.1-3.2,2.4c-0.1,0.3-0.2,0.7-0.2,1.1v7.9h-2.4L-580.9,119.1L-580.9,119.1z"/>
	</g>
</g>
</svg>
